<svg width="1098" height="600" viewBox="0 0 1098 600" fill="none" xmlns="http://www.w3.org/2000/svg">
<g clip-path="url(#clip0_17162_10207)">
<g filter="url(#filter0_d_17162_10207)">
<rect x="721" y="328" width="208" height="104" rx="8" fill="white" shape-rendering="crispEdges"/>
<path d="M756.64 360.256C753.216 360.256 750.816 357.76 750.816 354.224C750.816 350.672 753.216 348.192 756.64 348.192C758.256 348.192 759.696 348.88 760.752 349.952L759.632 351.056C758.928 350.224 757.808 349.68 756.624 349.68C754.176 349.68 752.528 351.504 752.528 354.224C752.528 356.944 754.176 358.768 756.624 358.768C757.888 358.768 758.896 358.192 759.568 357.424L760.752 358.496C759.696 359.568 758.336 360.272 756.64 360.256ZM765.817 358.752C767.001 358.752 767.801 357.808 767.801 356.352C767.801 354.912 767.001 353.952 765.817 353.952C764.633 353.952 763.833 354.896 763.833 356.352C763.833 357.808 764.617 358.752 765.817 358.752ZM765.817 352.496C767.977 352.496 769.497 354.096 769.497 356.352C769.497 358.592 767.977 360.208 765.817 360.208C763.657 360.208 762.137 358.592 762.137 356.352C762.137 354.096 763.657 352.496 765.817 352.496ZM780.919 355.808C780.919 354.72 780.327 354 779.463 354C778.487 354 777.831 354.752 777.831 355.728V360.144H776.119V355.808C776.119 354.72 775.543 354 774.695 354C773.719 354 773.031 354.832 773.031 355.904V360.144H771.335V352.512H773.031V353.552C773.479 352.944 774.135 352.528 774.855 352.528C775.767 352.528 776.663 353.104 777.111 353.904C777.639 353.104 778.663 352.528 779.575 352.528C781.383 352.528 782.631 353.872 782.631 355.744V360.144H780.919V355.808ZM788.595 358.752C789.827 358.752 790.627 357.792 790.627 356.336C790.627 354.88 789.827 353.92 788.595 353.92C787.443 353.92 786.499 354.992 786.499 356.336C786.499 357.68 787.443 358.752 788.595 358.752ZM788.691 352.496C790.819 352.496 792.323 354.08 792.323 356.336C792.323 358.608 790.819 360.192 788.691 360.192C788.083 360.192 787.091 359.856 786.483 359.056V363.52H784.787V352.496H786.483V353.616C787.091 352.816 788.099 352.496 788.691 352.496ZM797.41 360.208C795.298 360.208 793.794 358.608 793.794 356.368C793.794 354.128 795.298 352.528 797.41 352.528C798.162 352.528 798.994 352.88 799.602 353.6V352.512H801.298V360.144H799.602V359.12C798.994 359.888 798.162 360.208 797.41 360.208ZM797.522 358.768C798.642 358.768 799.602 357.76 799.618 356.368C799.602 354.976 798.642 353.968 797.522 353.968C796.306 353.968 795.49 354.912 795.49 356.368C795.49 357.808 796.306 358.768 797.522 358.768ZM808.579 355.936C808.579 354.72 807.955 353.984 806.899 353.984C805.859 354 805.059 354.816 805.075 355.936V360.144H803.379V352.512H805.075V353.552C805.555 352.96 806.371 352.528 807.107 352.528C808.547 352.528 810.275 353.472 810.275 355.872V360.144H808.579V355.936ZM814.837 363.456H812.981L814.645 359.504L811.573 352.512H813.445L815.541 357.568L817.557 352.512H819.397L816.549 359.376L814.837 363.456ZM821.188 353.264H828.164V354.96H821.188V353.264ZM840.635 352.512L838.395 360.144H836.827L835.323 355.216L833.851 360.144H832.283L829.995 352.512H831.755L833.083 357.392L834.459 352.512H836.155L837.579 357.392L838.875 352.512H840.635ZM842.319 352.496H844.015V360.128H842.319V352.496ZM843.167 348.688C843.727 348.688 844.127 349.088 844.127 349.648C844.127 350.208 843.727 350.608 843.167 350.608C842.607 350.608 842.207 350.208 842.207 349.648C842.207 349.088 842.607 348.688 843.167 348.688ZM849.707 360.208C847.595 360.208 846.075 358.608 846.075 356.352C846.075 354.096 847.595 352.496 849.707 352.496C850.331 352.496 851.275 352.768 851.931 353.632V348.704H853.627V360.144H851.931V359.072C851.259 359.888 850.331 360.208 849.707 360.208ZM849.819 358.784C850.971 358.784 851.931 357.728 851.931 356.368C851.931 355.024 850.971 353.952 849.819 353.952C848.587 353.952 847.771 354.912 847.771 356.368C847.771 357.824 848.587 358.784 849.819 358.784ZM859.052 360.176C856.892 360.176 855.372 358.592 855.372 356.352C855.372 354.096 856.892 352.512 859.052 352.512C861.42 352.512 862.172 354.448 862.22 354.576C862.684 355.664 862.54 356.88 862.54 357.008H857.036C857.228 358.032 858.092 358.736 859.052 358.736C860.316 358.736 860.828 358 860.956 357.776L862.316 358.384C861.948 359.248 860.876 360.176 859.052 360.176ZM860.94 355.664C860.78 354.72 860.236 353.952 859.052 353.952C858.028 353.952 857.228 354.672 857.036 355.664H860.94ZM875.916 348.32V349.808H869.98V353.312H875.084V354.784H869.98V358.64H875.916V360.128H868.284V348.32H875.916ZM879.241 356.768C879.929 358.112 880.905 358.784 881.929 358.784C883.449 358.8 884.297 358.064 884.297 356.928C884.297 354.24 878.361 355.392 878.361 351.28C878.361 349.328 879.961 348.176 882.153 348.192C883.673 348.208 885.129 349.056 885.785 350.896L884.265 351.44C883.849 350.208 883.017 349.68 882.137 349.664C880.873 349.664 880.057 350.288 880.057 351.28C880.057 353.936 885.977 352.928 885.977 356.944C885.977 358.928 884.425 360.288 881.913 360.256C880.185 360.24 878.809 359.248 877.833 357.552L879.241 356.768ZM898.991 353.936L898.975 354.96C898.975 358.272 896.719 360.208 893.439 360.256C889.999 360.256 887.567 357.76 887.567 354.224C887.567 350.688 889.999 348.208 893.439 348.208C897.135 348.208 898.431 351.056 898.431 351.056L896.975 351.808C896.975 351.808 896.047 349.696 893.439 349.696C890.943 349.696 889.263 351.52 889.263 354.224C889.263 356.944 890.943 358.768 893.439 358.768C895.583 358.704 897.295 357.664 897.311 355.344H893.631V353.936H898.991ZM769.538 374.32H771.234V386.128H769.538V374.32ZM783.387 381.808C783.387 380.72 782.795 380 781.931 380C780.955 380 780.299 380.752 780.299 381.728V386.144H778.587V381.808C778.587 380.72 778.011 380 777.163 380C776.187 380 775.499 380.832 775.499 381.904V386.144H773.803V378.512H775.499V379.552C775.947 378.944 776.603 378.528 777.323 378.528C778.235 378.528 779.131 379.104 779.579 379.904C780.107 379.104 781.131 378.528 782.043 378.528C783.851 378.528 785.099 379.872 785.099 381.744V386.144H783.387V381.808ZM791.064 384.752C792.296 384.752 793.096 383.792 793.096 382.336C793.096 380.88 792.296 379.92 791.064 379.92C789.912 379.92 788.968 380.992 788.968 382.336C788.968 383.68 789.912 384.752 791.064 384.752ZM791.16 378.496C793.288 378.496 794.792 380.08 794.792 382.336C794.792 384.608 793.288 386.192 791.16 386.192C790.552 386.192 789.56 385.856 788.952 385.056V389.52H787.256V378.496H788.952V379.616C789.56 378.816 790.568 378.496 791.16 378.496ZM796.376 374.704H798.072V386.128H796.376V374.704ZM803.349 386.176C801.189 386.176 799.669 384.592 799.669 382.352C799.669 380.096 801.189 378.512 803.349 378.512C805.717 378.512 806.469 380.448 806.517 380.576C806.981 381.664 806.837 382.88 806.837 383.008H801.333C801.525 384.032 802.389 384.736 803.349 384.736C804.613 384.736 805.125 384 805.253 383.776L806.613 384.384C806.245 385.248 805.173 386.176 803.349 386.176ZM805.237 381.664C805.077 380.72 804.533 379.952 803.349 379.952C802.325 379.952 801.525 380.672 801.333 381.664H805.237ZM818.341 381.808C818.341 380.72 817.749 380 816.885 380C815.909 380 815.253 380.752 815.253 381.728V386.144H813.541V381.808C813.541 380.72 812.965 380 812.117 380C811.141 380 810.453 380.832 810.453 381.904V386.144H808.757V378.512H810.453V379.552C810.901 378.944 811.557 378.528 812.277 378.528C813.189 378.528 814.085 379.104 814.533 379.904C815.061 379.104 816.085 378.528 816.997 378.528C818.805 378.528 820.053 379.872 820.053 381.744V386.144H818.341V381.808ZM825.599 386.176C823.439 386.176 821.919 384.592 821.919 382.352C821.919 380.096 823.439 378.512 825.599 378.512C827.967 378.512 828.719 380.448 828.767 380.576C829.231 381.664 829.087 382.88 829.087 383.008H823.583C823.775 384.032 824.639 384.736 825.599 384.736C826.863 384.736 827.375 384 827.503 383.776L828.863 384.384C828.495 385.248 827.423 386.176 825.599 386.176ZM827.487 381.664C827.327 380.72 826.783 379.952 825.599 379.952C824.575 379.952 823.775 380.672 823.583 381.664H827.487ZM836.095 381.936C836.095 380.72 835.471 379.984 834.415 379.984C833.375 380 832.575 380.816 832.591 381.936V386.144H830.895V378.512H832.591V379.552C833.071 378.96 833.887 378.528 834.623 378.528C836.063 378.528 837.791 379.472 837.791 381.872V386.144H836.095V381.936ZM840.589 386.144V379.968H839.149V378.496H840.589V375.824H842.285V378.496H844.093V379.968H842.285V386.144H840.589ZM848.91 386.208C846.798 386.208 845.294 384.608 845.294 382.368C845.294 380.128 846.798 378.528 848.91 378.528C849.662 378.528 850.494 378.88 851.102 379.6V378.512H852.798V386.144H851.102V385.12C850.494 385.888 849.662 386.208 848.91 386.208ZM849.022 384.768C850.142 384.768 851.102 383.76 851.118 382.368C851.102 380.976 850.142 379.968 849.022 379.968C847.806 379.968 846.99 380.912 846.99 382.368C846.99 383.808 847.806 384.768 849.022 384.768ZM855.761 386.144V379.968H854.321V378.496H855.761V375.824H857.457V378.496H859.265V379.968H857.457V386.144H855.761ZM861.007 378.496H862.703V386.128H861.007V378.496ZM861.855 374.688C862.415 374.688 862.815 375.088 862.815 375.648C862.815 376.208 862.415 376.608 861.855 376.608C861.295 376.608 860.895 376.208 860.895 375.648C860.895 375.088 861.295 374.688 861.855 374.688ZM868.442 384.752C869.626 384.752 870.426 383.808 870.426 382.352C870.426 380.912 869.626 379.952 868.442 379.952C867.258 379.952 866.458 380.896 866.458 382.352C866.458 383.808 867.242 384.752 868.442 384.752ZM868.442 378.496C870.602 378.496 872.122 380.096 872.122 382.352C872.122 384.592 870.602 386.208 868.442 386.208C866.282 386.208 864.762 384.592 864.762 382.352C864.762 380.096 866.282 378.496 868.442 378.496ZM879.048 381.936C879.048 380.72 878.424 379.984 877.368 379.984C876.328 380 875.528 380.816 875.544 381.936V386.144H873.848V378.512H875.544V379.552C876.024 378.96 876.84 378.528 877.576 378.528C879.016 378.528 880.744 379.472 880.744 381.872V386.144H879.048V381.936ZM791.593 412.256C788.169 412.256 785.769 409.76 785.769 406.224C785.769 402.672 788.169 400.192 791.593 400.192C793.209 400.192 794.649 400.88 795.705 401.952L794.585 403.056C793.881 402.224 792.761 401.68 791.577 401.68C789.129 401.68 787.481 403.504 787.481 406.224C787.481 408.944 789.129 410.768 791.577 410.768C792.841 410.768 793.849 410.192 794.521 409.424L795.705 410.496C794.649 411.568 793.289 412.272 791.593 412.256ZM800.771 410.752C801.955 410.752 802.755 409.808 802.755 408.352C802.755 406.912 801.955 405.952 800.771 405.952C799.587 405.952 798.787 406.896 798.787 408.352C798.787 409.808 799.571 410.752 800.771 410.752ZM800.771 404.496C802.931 404.496 804.451 406.096 804.451 408.352C804.451 410.592 802.931 412.208 800.771 412.208C798.611 412.208 797.091 410.592 797.091 408.352C797.091 406.096 798.611 404.496 800.771 404.496ZM815.872 407.808C815.872 406.72 815.28 406 814.416 406C813.44 406 812.784 406.752 812.784 407.728V412.144H811.072V407.808C811.072 406.72 810.496 406 809.648 406C808.672 406 807.984 406.832 807.984 407.904V412.144H806.288V404.512H807.984V405.552C808.432 404.944 809.088 404.528 809.808 404.528C810.72 404.528 811.616 405.104 812.064 405.904C812.592 405.104 813.616 404.528 814.528 404.528C816.336 404.528 817.584 405.872 817.584 407.744V412.144H815.872V407.808ZM829.341 407.808C829.341 406.72 828.749 406 827.885 406C826.909 406 826.253 406.752 826.253 407.728V412.144H824.541V407.808C824.541 406.72 823.965 406 823.117 406C822.141 406 821.453 406.832 821.453 407.904V412.144H819.757V404.512H821.453V405.552C821.901 404.944 822.557 404.528 823.277 404.528C824.189 404.528 825.085 405.104 825.533 405.904C826.061 405.104 827.085 404.528 827.997 404.528C829.805 404.528 831.053 405.872 831.053 407.744V412.144H829.341V407.808ZM833.351 404.496H835.047V412.128H833.351V404.496ZM834.199 400.688C834.759 400.688 835.159 401.088 835.159 401.648C835.159 402.208 834.759 402.608 834.199 402.608C833.639 402.608 833.239 402.208 833.239 401.648C833.239 401.088 833.639 400.688 834.199 400.688ZM838.37 412.144V405.968H836.93V404.496H838.37V401.824H840.066V404.496H841.874V405.968H840.066V412.144H838.37ZM843.808 412.144V405.968H842.368V404.496H843.808V401.824H845.504V404.496H847.312V405.968H845.504V412.144H843.808ZM852.192 412.176C850.032 412.176 848.512 410.592 848.512 408.352C848.512 406.096 850.032 404.512 852.192 404.512C854.56 404.512 855.312 406.448 855.36 406.576C855.824 407.664 855.68 408.88 855.68 409.008H850.176C850.368 410.032 851.232 410.736 852.192 410.736C853.456 410.736 853.968 410 854.096 409.776L855.456 410.384C855.088 411.248 854.016 412.176 852.192 412.176ZM854.08 407.664C853.92 406.72 853.376 405.952 852.192 405.952C851.168 405.952 850.368 406.672 850.176 407.664H854.08ZM860.927 412.176C858.767 412.176 857.247 410.592 857.247 408.352C857.247 406.096 858.767 404.512 860.927 404.512C863.295 404.512 864.047 406.448 864.095 406.576C864.559 407.664 864.415 408.88 864.415 409.008H858.911C859.103 410.032 859.967 410.736 860.927 410.736C862.191 410.736 862.703 410 862.831 409.776L864.191 410.384C863.823 411.248 862.751 412.176 860.927 412.176ZM862.815 407.664C862.655 406.72 862.111 405.952 860.927 405.952C859.903 405.952 859.103 406.672 858.911 407.664H862.815Z" fill="#6D0CA6"/>
</g>
<line x1="549.5" y1="100" x2="549.5" y2="138" stroke="#71717A"/>
<path d="M274 178V146C274 141.582 277.582 138 282 138H817C821.418 138 825 141.582 825 146V178" stroke="#71717A"/>
<path d="M357 328V296C357 291.582 360.582 288 365 288H825V328" stroke="#71717A"/>
<path d="M824.5 250L824.5 288" stroke="#71717A"/>
<line x1="357.5" y1="364" x2="357.5" y2="548" stroke="#71717A"/>
<line x1="425" y1="547.5" x2="609" y2="547.5" stroke="#71717A" stroke-dasharray="3 3"/>
<line x1="425" y1="363.5" x2="609" y2="363.5" stroke="#71717A" stroke-dasharray="3 3"/>
<g filter="url(#filter1_d_17162_10207)">
<rect x="445" y="28" width="208" height="72" rx="8" fill="#9735D0" shape-rendering="crispEdges"/>
<path d="M528.1 71.16V56.4H533.02C535.38 56.4 537.06 58.06 537.06 60.42C537.06 61.34 536.58 62.4 535.86 63.14L536.38 63.46C537.48 64.18 538.28 65.62 538.28 66.96C538.28 69.42 536.6 71.16 534.22 71.16H528.1ZM534 69.3C535.3 69.3 536.18 68.36 536.18 66.98C536.18 65.48 535.3 64.48 534 64.48H530.22V69.3H534ZM533.06 62.64C534.2 62.58 534.98 61.74 534.98 60.52C534.98 59.16 534.12 58.26 532.84 58.26H530.22V62.64H533.06ZM547.84 69.46C550.96 69.46 553.06 67.18 553.06 63.78C553.06 60.38 550.96 58.1 547.84 58.1C544.72 58.1 542.64 60.38 542.64 63.78C542.64 67.18 544.72 69.46 547.84 69.46ZM547.84 56.24C552.16 56.24 555.2 59.36 555.2 63.78C555.2 68.2 552.16 71.32 547.84 71.32C543.54 71.32 540.5 68.2 540.5 63.78C540.5 59.36 543.54 56.24 547.84 56.24ZM561.891 69.3C565.051 69.3 567.171 67.08 567.171 63.78C567.171 60.48 565.051 58.26 561.891 58.26L559.791 58.28V69.28L561.891 69.3ZM561.911 56.4C566.231 56.4 569.271 59.44 569.271 63.78C569.271 68.12 566.231 71.16 561.911 71.16H557.671V56.4H561.911Z" fill="white"/>
</g>
<rect x="720.5" y="178" width="208" height="72" rx="8" fill="#F5EBFB"/>
<path d="M810.7 221.32C806.42 221.32 803.42 218.2 803.42 213.78C803.42 209.34 806.42 206.24 810.7 206.24C812.72 206.24 814.52 207.1 815.84 208.44L814.44 209.82C813.56 208.78 812.16 208.1 810.68 208.1C807.62 208.1 805.56 210.38 805.56 213.78C805.56 217.18 807.62 219.46 810.68 219.46C812.26 219.46 813.52 218.74 814.36 217.78L815.84 219.12C814.52 220.46 812.82 221.34 810.7 221.32ZM827.803 206.4V208.26H820.383V212.64H826.763V214.48H820.383V219.3H827.803V221.16H818.263V206.4H827.803ZM837.441 219.46C840.561 219.46 842.661 217.18 842.661 213.78C842.661 210.38 840.561 208.1 837.441 208.1C834.321 208.1 832.241 210.38 832.241 213.78C832.241 217.18 834.321 219.46 837.441 219.46ZM837.441 206.24C841.761 206.24 844.801 209.36 844.801 213.78C844.801 218.2 841.761 221.32 837.441 221.32C833.141 221.32 830.101 218.2 830.101 213.78C830.101 209.36 833.141 206.24 837.441 206.24Z" fill="#6D0CA6"/>
<g filter="url(#filter2_d_17162_10207)">
<rect x="170.5" y="178" width="208" height="76" rx="8" fill="white" shape-rendering="crispEdges"/>
<path d="M229.241 205.768C229.929 207.112 230.905 207.784 231.929 207.784C233.449 207.8 234.297 207.064 234.297 205.928C234.297 203.24 228.361 204.392 228.361 200.28C228.361 198.328 229.961 197.176 232.153 197.192C233.673 197.208 235.129 198.056 235.785 199.896L234.265 200.44C233.849 199.208 233.017 198.68 232.137 198.664C230.873 198.664 230.057 199.288 230.057 200.28C230.057 202.936 235.977 201.928 235.977 205.944C235.977 207.928 234.425 209.288 231.913 209.256C230.185 209.24 228.809 208.248 227.833 206.552L229.241 205.768ZM239.011 209.144V202.968H237.571V201.496H239.011V198.824H240.707V201.496H242.515V202.968H240.707V209.144H239.011ZM244.033 209.144V201.512H245.729V202.632C246.241 201.912 247.169 201.432 248.065 201.48V203.048C246.705 202.984 245.729 204.184 245.729 205.352V209.144H244.033ZM252.55 209.208C250.438 209.208 248.934 207.608 248.934 205.368C248.934 203.128 250.438 201.528 252.55 201.528C253.302 201.528 254.134 201.88 254.742 202.6V201.512H256.438V209.144H254.742V208.12C254.134 208.888 253.302 209.208 252.55 209.208ZM252.662 207.768C253.782 207.768 254.742 206.76 254.758 205.368C254.742 203.976 253.782 202.968 252.662 202.968C251.446 202.968 250.63 203.912 250.63 205.368C250.63 206.808 251.446 207.768 252.662 207.768ZM259.401 209.144V202.968H257.961V201.496H259.401V198.824H261.097V201.496H262.905V202.968H261.097V209.144H259.401ZM267.786 209.176C265.626 209.176 264.106 207.592 264.106 205.352C264.106 203.096 265.626 201.512 267.786 201.512C270.154 201.512 270.906 203.448 270.954 203.576C271.418 204.664 271.274 205.88 271.274 206.008H265.77C265.962 207.032 266.826 207.736 267.786 207.736C269.05 207.736 269.562 207 269.69 206.776L271.05 207.384C270.682 208.248 269.61 209.176 267.786 209.176ZM269.674 204.664C269.514 203.72 268.97 202.952 267.786 202.952C266.762 202.952 265.962 203.672 265.77 204.664H269.674ZM276.553 207.736C277.769 207.736 278.649 206.664 278.649 205.336C278.649 204.04 277.769 202.952 276.553 202.952C275.353 202.952 274.537 203.896 274.537 205.336C274.537 206.792 275.353 207.736 276.553 207.736ZM280.345 208.568C280.345 210.744 278.873 212.536 276.537 212.536C275.257 212.536 274.025 212.008 273.273 210.76L274.617 209.864C275.177 210.68 275.721 211.032 276.537 211.032C277.897 211.032 278.649 209.96 278.649 208.712V208.04C278.057 208.792 277.177 209.192 276.457 209.192C274.345 209.192 272.841 207.592 272.841 205.352C272.841 203.112 274.345 201.496 276.457 201.496C277.241 201.496 278.121 201.896 278.649 202.616V201.496H280.345V208.568ZM285.555 212.456H283.699L285.363 208.504L282.291 201.512H284.163L286.259 206.568L288.275 201.512H290.115L287.267 208.376L285.555 212.456ZM299.035 209.208C296.923 209.208 295.419 207.608 295.419 205.368C295.419 203.128 296.923 201.528 299.035 201.528C299.787 201.528 300.619 201.88 301.227 202.6V201.512H302.923V209.144H301.227V208.12C300.619 208.888 299.787 209.208 299.035 209.208ZM299.147 207.768C300.267 207.768 301.227 206.76 301.243 205.368C301.227 203.976 300.267 202.968 299.147 202.968C297.931 202.968 297.115 203.912 297.115 205.368C297.115 206.808 297.931 207.768 299.147 207.768ZM310.204 204.936C310.204 203.72 309.58 202.984 308.524 202.984C307.484 203 306.684 203.816 306.7 204.936V209.144H305.004V201.512H306.7V202.552C307.18 201.96 307.996 201.528 308.732 201.528C310.172 201.528 311.9 202.472 311.9 204.872V209.144H310.204V204.936ZM317.254 209.208C315.142 209.208 313.622 207.608 313.622 205.352C313.622 203.096 315.142 201.496 317.254 201.496C317.878 201.496 318.822 201.768 319.478 202.632V197.704H321.174V209.144H319.478V208.072C318.806 208.888 317.878 209.208 317.254 209.208ZM317.366 207.784C318.518 207.784 319.478 206.728 319.478 205.368C319.478 204.024 318.518 202.952 317.366 202.952C316.134 202.952 315.318 203.912 315.318 205.368C315.318 206.824 316.134 207.784 317.366 207.784ZM224.455 223.32V224.808H218.519V228.312H223.623V229.784H218.519V233.64H224.455V235.128H216.823V223.32H224.455ZM227.78 231.768C228.468 233.112 229.444 233.784 230.468 233.784C231.988 233.8 232.836 233.064 232.836 231.928C232.836 229.24 226.9 230.392 226.9 226.28C226.9 224.328 228.5 223.176 230.692 223.192C232.212 223.208 233.668 224.056 234.324 225.896L232.804 226.44C232.388 225.208 231.556 224.68 230.676 224.664C229.412 224.664 228.596 225.288 228.596 226.28C228.596 228.936 234.516 227.928 234.516 231.944C234.516 233.928 232.964 235.288 230.452 235.256C228.724 235.24 227.348 234.248 226.372 232.552L227.78 231.768ZM247.53 228.936L247.514 229.96C247.514 233.272 245.258 235.208 241.978 235.256C238.538 235.256 236.106 232.76 236.106 229.224C236.106 225.688 238.538 223.208 241.978 223.208C245.674 223.208 246.97 226.056 246.97 226.056L245.514 226.808C245.514 226.808 244.586 224.696 241.978 224.696C239.482 224.696 237.802 226.52 237.802 229.224C237.802 231.944 239.482 233.768 241.978 233.768C244.122 233.704 245.834 232.664 245.85 230.344H242.17V228.936H247.53ZM259.507 235.256C256.083 235.256 253.683 232.76 253.683 229.224C253.683 225.672 256.083 223.192 259.507 223.192C261.123 223.192 262.563 223.88 263.619 224.952L262.499 226.056C261.795 225.224 260.675 224.68 259.491 224.68C257.043 224.68 255.395 226.504 255.395 229.224C255.395 231.944 257.043 233.768 259.491 233.768C260.755 233.768 261.763 233.192 262.435 232.424L263.619 233.496C262.563 234.568 261.203 235.272 259.507 235.256ZM268.685 233.752C269.869 233.752 270.669 232.808 270.669 231.352C270.669 229.912 269.869 228.952 268.685 228.952C267.501 228.952 266.701 229.896 266.701 231.352C266.701 232.808 267.485 233.752 268.685 233.752ZM268.685 227.496C270.845 227.496 272.365 229.096 272.365 231.352C272.365 233.592 270.845 235.208 268.685 235.208C266.525 235.208 265.005 233.592 265.005 231.352C265.005 229.096 266.525 227.496 268.685 227.496ZM283.786 230.808C283.786 229.72 283.194 229 282.33 229C281.354 229 280.698 229.752 280.698 230.728V235.144H278.986V230.808C278.986 229.72 278.41 229 277.562 229C276.586 229 275.898 229.832 275.898 230.904V235.144H274.202V227.512H275.898V228.552C276.346 227.944 277.002 227.528 277.722 227.528C278.634 227.528 279.53 228.104 279.978 228.904C280.506 228.104 281.53 227.528 282.442 227.528C284.25 227.528 285.498 228.872 285.498 230.744V235.144H283.786V230.808ZM297.255 230.808C297.255 229.72 296.663 229 295.799 229C294.823 229 294.167 229.752 294.167 230.728V235.144H292.455V230.808C292.455 229.72 291.879 229 291.031 229C290.055 229 289.367 229.832 289.367 230.904V235.144H287.671V227.512H289.367V228.552C289.815 227.944 290.471 227.528 291.191 227.528C292.103 227.528 292.999 228.104 293.447 228.904C293.975 228.104 294.999 227.528 295.911 227.528C297.719 227.528 298.967 228.872 298.967 230.744V235.144H297.255V230.808ZM301.265 227.496H302.961V235.128H301.265V227.496ZM302.113 223.688C302.673 223.688 303.073 224.088 303.073 224.648C303.073 225.208 302.673 225.608 302.113 225.608C301.553 225.608 301.153 225.208 301.153 224.648C301.153 224.088 301.553 223.688 302.113 223.688ZM306.284 235.144V228.968H304.844V227.496H306.284V224.824H307.98V227.496H309.788V228.968H307.98V235.144H306.284ZM311.722 235.144V228.968H310.282V227.496H311.722V224.824H313.418V227.496H315.226V228.968H313.418V235.144H311.722ZM320.107 235.176C317.947 235.176 316.427 233.592 316.427 231.352C316.427 229.096 317.947 227.512 320.107 227.512C322.475 227.512 323.227 229.448 323.275 229.576C323.739 230.664 323.595 231.88 323.595 232.008H318.091C318.283 233.032 319.147 233.736 320.107 233.736C321.371 233.736 321.883 233 322.011 232.776L323.371 233.384C323.003 234.248 321.931 235.176 320.107 235.176ZM321.995 230.664C321.835 229.72 321.291 228.952 320.107 228.952C319.083 228.952 318.283 229.672 318.091 230.664H321.995ZM328.841 235.176C326.681 235.176 325.161 233.592 325.161 231.352C325.161 229.096 326.681 227.512 328.841 227.512C331.209 227.512 331.961 229.448 332.009 229.576C332.473 230.664 332.329 231.88 332.329 232.008H326.825C327.017 233.032 327.881 233.736 328.841 233.736C330.105 233.736 330.617 233 330.745 232.776L332.105 233.384C331.737 234.248 330.665 235.176 328.841 235.176ZM330.729 230.664C330.569 229.72 330.025 228.952 328.841 228.952C327.817 228.952 327.017 229.672 326.825 230.664H330.729Z" fill="#6D0CA6"/>
</g>
<rect x="253.5" y="328" width="208" height="76" rx="8" fill="#F6F6F7"/>
<path d="M315.339 356.664L311.835 350.44V359.128H310.139V347.32H311.979L316.091 354.536L320.187 347.32H322.043V359.128H320.347V350.44L316.827 356.664H315.339ZM327.746 359.208C325.634 359.208 324.13 357.608 324.13 355.368C324.13 353.128 325.634 351.528 327.746 351.528C328.498 351.528 329.33 351.88 329.938 352.6V351.512H331.634V359.144H329.938V358.12C329.33 358.888 328.498 359.208 327.746 359.208ZM327.858 357.768C328.978 357.768 329.938 356.76 329.954 355.368C329.938 353.976 328.978 352.968 327.858 352.968C326.642 352.968 325.826 353.912 325.826 355.368C325.826 356.808 326.642 357.768 327.858 357.768ZM338.915 354.936C338.915 353.72 338.291 352.984 337.235 352.984C336.195 353 335.395 353.816 335.411 354.936V359.144H333.715V351.512H335.411V352.552C335.891 351.96 336.707 351.528 337.443 351.528C338.883 351.528 340.611 352.472 340.611 354.872V359.144H338.915V354.936ZM345.949 359.208C343.837 359.208 342.333 357.608 342.333 355.368C342.333 353.128 343.837 351.528 345.949 351.528C346.701 351.528 347.533 351.88 348.141 352.6V351.512H349.837V359.144H348.141V358.12C347.533 358.888 346.701 359.208 345.949 359.208ZM346.061 357.768C347.181 357.768 348.141 356.76 348.157 355.368C348.141 353.976 347.181 352.968 346.061 352.968C344.845 352.968 344.029 353.912 344.029 355.368C344.029 356.808 344.845 357.768 346.061 357.768ZM355.435 357.736C356.651 357.736 357.531 356.664 357.531 355.336C357.531 354.04 356.651 352.952 355.435 352.952C354.235 352.952 353.419 353.896 353.419 355.336C353.419 356.792 354.235 357.736 355.435 357.736ZM359.227 358.568C359.227 360.744 357.755 362.536 355.419 362.536C354.139 362.536 352.907 362.008 352.155 360.76L353.499 359.864C354.059 360.68 354.603 361.032 355.419 361.032C356.779 361.032 357.531 359.96 357.531 358.712V358.04C356.939 358.792 356.059 359.192 355.339 359.192C353.227 359.192 351.723 357.592 351.723 355.352C351.723 353.112 353.227 351.496 355.339 351.496C356.123 351.496 357.003 351.896 357.531 352.616V351.496H359.227V358.568ZM364.466 359.176C362.306 359.176 360.786 357.592 360.786 355.352C360.786 353.096 362.306 351.512 364.466 351.512C366.834 351.512 367.586 353.448 367.634 353.576C368.098 354.664 367.954 355.88 367.954 356.008H362.45C362.642 357.032 363.506 357.736 364.466 357.736C365.73 357.736 366.242 357 366.37 356.776L367.73 357.384C367.362 358.248 366.29 359.176 364.466 359.176ZM366.354 354.664C366.194 353.72 365.65 352.952 364.466 352.952C363.442 352.952 362.642 353.672 362.45 354.664H366.354ZM379.458 354.808C379.458 353.72 378.866 353 378.002 353C377.026 353 376.37 353.752 376.37 354.728V359.144H374.658V354.808C374.658 353.72 374.082 353 373.234 353C372.258 353 371.57 353.832 371.57 354.904V359.144H369.874V351.512H371.57V352.552C372.018 351.944 372.674 351.528 373.394 351.528C374.306 351.528 375.202 352.104 375.65 352.904C376.178 352.104 377.202 351.528 378.114 351.528C379.922 351.528 381.17 352.872 381.17 354.744V359.144H379.458V354.808ZM386.716 359.176C384.556 359.176 383.036 357.592 383.036 355.352C383.036 353.096 384.556 351.512 386.716 351.512C389.084 351.512 389.836 353.448 389.884 353.576C390.348 354.664 390.204 355.88 390.204 356.008H384.7C384.892 357.032 385.756 357.736 386.716 357.736C387.98 357.736 388.492 357 388.62 356.776L389.98 357.384C389.612 358.248 388.54 359.176 386.716 359.176ZM388.604 354.664C388.444 353.72 387.9 352.952 386.716 352.952C385.692 352.952 384.892 353.672 384.7 354.664H388.604ZM397.212 354.936C397.212 353.72 396.588 352.984 395.532 352.984C394.492 353 393.692 353.816 393.708 354.936V359.144H392.012V351.512H393.708V352.552C394.188 351.96 395.004 351.528 395.74 351.528C397.18 351.528 398.908 352.472 398.908 354.872V359.144H397.212V354.936ZM401.706 359.144V352.968H400.266V351.496H401.706V348.824H403.402V351.496H405.21V352.968H403.402V359.144H401.706ZM288.483 381.768C289.171 383.112 290.147 383.784 291.171 383.784C292.691 383.8 293.539 383.064 293.539 381.928C293.539 379.24 287.603 380.392 287.603 376.28C287.603 374.328 289.203 373.176 291.395 373.192C292.915 373.208 294.371 374.056 295.027 375.896L293.507 376.44C293.091 375.208 292.259 374.68 291.379 374.664C290.115 374.664 289.299 375.288 289.299 376.28C289.299 378.936 295.219 377.928 295.219 381.944C295.219 383.928 293.667 385.288 291.155 385.256C289.427 385.24 288.051 384.248 287.075 382.552L288.483 381.768ZM299.161 381.864C299.161 383.032 299.849 383.752 300.857 383.752C301.929 383.752 302.665 383.048 302.649 381.88V377.512H304.361V385.144H302.649V384.264C302.169 384.856 301.385 385.208 300.633 385.208C298.793 385.208 297.465 383.88 297.465 381.928V377.512H299.161V381.864ZM310.447 383.752C311.679 383.752 312.479 382.792 312.479 381.336C312.479 379.88 311.679 378.92 310.447 378.92C309.295 378.92 308.351 379.992 308.351 381.336C308.351 382.68 309.295 383.752 310.447 383.752ZM310.543 377.496C312.671 377.496 314.175 379.08 314.175 381.336C314.175 383.608 312.671 385.192 310.543 385.192C309.935 385.192 308.943 384.856 308.335 384.056V388.52H306.639V377.496H308.335V378.616C308.943 377.816 309.951 377.496 310.543 377.496ZM319.791 383.752C321.023 383.752 321.823 382.792 321.823 381.336C321.823 379.88 321.023 378.92 319.791 378.92C318.639 378.92 317.695 379.992 317.695 381.336C317.695 382.68 318.639 383.752 319.791 383.752ZM319.887 377.496C322.015 377.496 323.519 379.08 323.519 381.336C323.519 383.608 322.015 385.192 319.887 385.192C319.279 385.192 318.287 384.856 317.679 384.056V388.52H315.983V377.496H317.679V378.616C318.287 377.816 319.295 377.496 319.887 377.496ZM328.669 383.752C329.853 383.752 330.653 382.808 330.653 381.352C330.653 379.912 329.853 378.952 328.669 378.952C327.485 378.952 326.685 379.896 326.685 381.352C326.685 382.808 327.469 383.752 328.669 383.752ZM328.669 377.496C330.829 377.496 332.349 379.096 332.349 381.352C332.349 383.592 330.829 385.208 328.669 385.208C326.509 385.208 324.989 383.592 324.989 381.352C324.989 379.096 326.509 377.496 328.669 377.496ZM333.994 385.144V377.512H335.69V378.632C336.202 377.912 337.13 377.432 338.026 377.48V379.048C336.666 378.984 335.69 380.184 335.69 381.352V385.144H333.994ZM340.8 385.144V378.968H339.36V377.496H340.8V374.824H342.496V377.496H344.304V378.968H342.496V385.144H340.8ZM346.046 377.496H347.742V385.128H346.046V377.496ZM346.894 373.688C347.454 373.688 347.854 374.088 347.854 374.648C347.854 375.208 347.454 375.608 346.894 375.608C346.334 375.608 345.934 375.208 345.934 374.648C345.934 374.088 346.334 373.688 346.894 373.688ZM355.306 380.936C355.306 379.72 354.682 378.984 353.626 378.984C352.586 379 351.786 379.816 351.802 380.936V385.144H350.106V377.512H351.802V378.552C352.282 377.96 353.098 377.528 353.834 377.528C355.274 377.528 357.002 378.472 357.002 380.872V385.144H355.306V380.936ZM362.435 383.736C363.651 383.736 364.531 382.664 364.531 381.336C364.531 380.04 363.651 378.952 362.435 378.952C361.235 378.952 360.419 379.896 360.419 381.336C360.419 382.792 361.235 383.736 362.435 383.736ZM366.227 384.568C366.227 386.744 364.755 388.536 362.419 388.536C361.139 388.536 359.907 388.008 359.155 386.76L360.499 385.864C361.059 386.68 361.603 387.032 362.419 387.032C363.779 387.032 364.531 385.96 364.531 384.712V384.04C363.939 384.792 363.059 385.192 362.339 385.192C360.227 385.192 358.723 383.592 358.723 381.352C358.723 379.112 360.227 377.496 362.339 377.496C363.123 377.496 364.003 377.896 364.531 378.616V377.496H366.227V384.568ZM375.766 383.64C378.294 383.64 379.99 381.864 379.99 379.224C379.99 376.584 378.294 374.808 375.766 374.808L374.086 374.824V383.624L375.766 383.64ZM375.782 373.32C379.238 373.32 381.67 375.752 381.67 379.224C381.67 382.696 379.238 385.128 375.782 385.128H372.39V373.32H375.782ZM383.64 377.496H385.336V385.128H383.64V377.496ZM384.488 373.688C385.048 373.688 385.448 374.088 385.448 374.648C385.448 375.208 385.048 375.608 384.488 375.608C383.928 375.608 383.528 375.208 383.528 374.648C383.528 374.088 383.928 373.688 384.488 373.688ZM394.983 377.512L391.751 385.144H390.279L387.079 377.512H388.935L391.015 382.856L393.111 377.512H394.983ZM396.671 377.496H398.367V385.128H396.671V377.496ZM397.519 373.688C398.079 373.688 398.479 374.088 398.479 374.648C398.479 375.208 398.079 375.608 397.519 375.608C396.959 375.608 396.559 375.208 396.559 374.648C396.559 374.088 396.959 373.688 397.519 373.688ZM401.787 382.52C402.123 383.352 402.955 383.736 403.467 383.736C404.266 383.736 404.779 383.432 404.779 382.904C404.779 382.424 404.075 382.2 403.291 381.928C402.251 381.56 400.779 381.064 400.779 379.592C400.779 378.248 402.011 377.432 403.579 377.432C404.523 377.432 405.931 377.976 406.315 379.352L404.891 379.864C404.635 379.016 403.947 378.888 403.579 378.888C402.907 378.888 402.475 379.16 402.475 379.592C402.475 380.072 403.131 380.264 403.947 380.552C405.035 380.936 406.475 381.432 406.475 382.888C406.475 384.28 405.243 385.192 403.467 385.192C402.299 385.192 401.019 384.456 400.459 383.288L401.787 382.52ZM408.374 377.496H410.07V385.128H408.374V377.496ZM409.222 373.688C409.782 373.688 410.182 374.088 410.182 374.648C410.182 375.208 409.782 375.608 409.222 375.608C408.662 375.608 408.262 375.208 408.262 374.648C408.262 374.088 408.662 373.688 409.222 373.688ZM415.81 383.752C416.994 383.752 417.794 382.808 417.794 381.352C417.794 379.912 416.994 378.952 415.81 378.952C414.626 378.952 413.826 379.896 413.826 381.352C413.826 382.808 414.61 383.752 415.81 383.752ZM415.81 377.496C417.97 377.496 419.49 379.096 419.49 381.352C419.49 383.592 417.97 385.208 415.81 385.208C413.65 385.208 412.13 383.592 412.13 381.352C412.13 379.096 413.65 377.496 415.81 377.496ZM426.415 380.936C426.415 379.72 425.791 378.984 424.735 378.984C423.695 379 422.895 379.816 422.911 380.936V385.144H421.215V377.512H422.911V378.552C423.391 377.96 424.207 377.528 424.943 377.528C426.383 377.528 428.111 378.472 428.111 380.872V385.144H426.415V380.936Z" fill="#15151A"/>
<rect x="253.5" y="420" width="208" height="76" rx="8" fill="#F6F6F7"/>
<path d="M299.108 451.256C295.684 451.256 293.284 448.76 293.284 445.224C293.284 441.672 295.684 439.192 299.108 439.192C300.724 439.192 302.164 439.88 303.22 440.952L302.1 442.056C301.396 441.224 300.276 440.68 299.092 440.68C296.644 440.68 294.996 442.504 294.996 445.224C294.996 447.944 296.644 449.768 299.092 449.768C300.356 449.768 301.364 449.192 302.036 448.424L303.22 449.496C302.164 450.568 300.804 451.272 299.108 451.256ZM308.286 449.752C309.47 449.752 310.27 448.808 310.27 447.352C310.27 445.912 309.47 444.952 308.286 444.952C307.102 444.952 306.302 445.896 306.302 447.352C306.302 448.808 307.086 449.752 308.286 449.752ZM308.286 443.496C310.446 443.496 311.966 445.096 311.966 447.352C311.966 449.592 310.446 451.208 308.286 451.208C306.126 451.208 304.606 449.592 304.606 447.352C304.606 445.096 306.126 443.496 308.286 443.496ZM313.611 451.144V443.512H315.307V444.632C315.819 443.912 316.747 443.432 317.643 443.48V445.048C316.283 444.984 315.307 446.184 315.307 447.352V451.144H313.611ZM323.361 449.752C324.593 449.752 325.393 448.792 325.393 447.336C325.393 445.88 324.593 444.92 323.361 444.92C322.209 444.92 321.265 445.992 321.265 447.336C321.265 448.68 322.209 449.752 323.361 449.752ZM323.457 443.496C325.585 443.496 327.089 445.08 327.089 447.336C327.089 449.608 325.585 451.192 323.457 451.192C322.849 451.192 321.857 450.856 321.249 450.056V454.52H319.553V443.496H321.249V444.616C321.857 443.816 322.865 443.496 323.457 443.496ZM332.239 449.752C333.423 449.752 334.223 448.808 334.223 447.352C334.223 445.912 333.423 444.952 332.239 444.952C331.055 444.952 330.255 445.896 330.255 447.352C330.255 448.808 331.039 449.752 332.239 449.752ZM332.239 443.496C334.399 443.496 335.919 445.096 335.919 447.352C335.919 449.592 334.399 451.208 332.239 451.208C330.079 451.208 328.559 449.592 328.559 447.352C328.559 445.096 330.079 443.496 332.239 443.496ZM337.565 451.144V443.512H339.261V444.632C339.773 443.912 340.701 443.432 341.597 443.48V445.048C340.237 444.984 339.261 446.184 339.261 447.352V451.144H337.565ZM346.082 451.208C343.97 451.208 342.466 449.608 342.466 447.368C342.466 445.128 343.97 443.528 346.082 443.528C346.834 443.528 347.666 443.88 348.274 444.6V443.512H349.97V451.144H348.274V450.12C347.666 450.888 346.834 451.208 346.082 451.208ZM346.194 449.768C347.314 449.768 348.274 448.76 348.29 447.368C348.274 445.976 347.314 444.968 346.194 444.968C344.978 444.968 344.162 445.912 344.162 447.368C344.162 448.808 344.978 449.768 346.194 449.768ZM352.933 451.144V444.968H351.493V443.496H352.933V440.824H354.629V443.496H356.437V444.968H354.629V451.144H352.933ZM361.317 451.176C359.157 451.176 357.637 449.592 357.637 447.352C357.637 445.096 359.157 443.512 361.317 443.512C363.685 443.512 364.437 445.448 364.485 445.576C364.949 446.664 364.805 447.88 364.805 448.008H359.301C359.493 449.032 360.357 449.736 361.317 449.736C362.581 449.736 363.093 449 363.221 448.776L364.581 449.384C364.213 450.248 363.141 451.176 361.317 451.176ZM363.205 446.664C363.045 445.72 362.501 444.952 361.317 444.952C360.293 444.952 359.493 445.672 359.301 446.664H363.205ZM376.405 451.256C372.981 451.256 370.581 448.76 370.581 445.224C370.581 441.672 372.981 439.192 376.405 439.192C378.021 439.192 379.461 439.88 380.517 440.952L379.397 442.056C378.693 441.224 377.573 440.68 376.389 440.68C373.941 440.68 372.293 442.504 372.293 445.224C372.293 447.944 373.941 449.768 376.389 449.768C377.653 449.768 378.661 449.192 379.333 448.424L380.517 449.496C379.461 450.568 378.101 451.272 376.405 451.256ZM384.075 447.864C384.075 449.032 384.763 449.752 385.771 449.752C386.843 449.752 387.579 449.048 387.563 447.88V443.512H389.275V451.144H387.563V450.264C387.083 450.856 386.299 451.208 385.547 451.208C383.707 451.208 382.379 449.88 382.379 447.928V443.512H384.075V447.864ZM391.329 439.704H393.025V451.128H391.329V439.704ZM395.714 451.144V444.968H394.274V443.496H395.714V440.824H397.41V443.496H399.218V444.968H397.41V451.144H395.714ZM402.528 447.864C402.528 449.032 403.216 449.752 404.224 449.752C405.296 449.752 406.032 449.048 406.016 447.88V443.512H407.728V451.144H406.016V450.264C405.536 450.856 404.752 451.208 404 451.208C402.16 451.208 400.832 449.88 400.832 447.928V443.512H402.528V447.864ZM409.83 451.144V443.512H411.526V444.632C412.038 443.912 412.966 443.432 413.862 443.48V445.048C412.502 444.984 411.526 446.184 411.526 447.352V451.144H409.83ZM418.411 451.176C416.251 451.176 414.731 449.592 414.731 447.352C414.731 445.096 416.251 443.512 418.411 443.512C420.779 443.512 421.531 445.448 421.579 445.576C422.043 446.664 421.899 447.88 421.899 448.008H416.395C416.587 449.032 417.451 449.736 418.411 449.736C419.675 449.736 420.187 449 420.315 448.776L421.675 449.384C421.307 450.248 420.235 451.176 418.411 451.176ZM420.299 446.664C420.139 445.72 419.595 444.952 418.411 444.952C417.387 444.952 416.587 445.672 416.395 446.664H420.299ZM333.156 475.64C335.684 475.64 337.38 473.864 337.38 471.224C337.38 468.584 335.684 466.808 333.156 466.808L331.476 466.824V475.624L333.156 475.64ZM333.172 465.32C336.628 465.32 339.06 467.752 339.06 471.224C339.06 474.696 336.628 477.128 333.172 477.128H329.78V465.32H333.172ZM341.03 469.496H342.726V477.128H341.03V469.496ZM341.878 465.688C342.438 465.688 342.838 466.088 342.838 466.648C342.838 467.208 342.438 467.608 341.878 467.608C341.318 467.608 340.918 467.208 340.918 466.648C340.918 466.088 341.318 465.688 341.878 465.688ZM352.374 469.512L349.142 477.144H347.67L344.47 469.512H346.326L348.406 474.856L350.502 469.512H352.374ZM354.062 469.496H355.758V477.128H354.062V469.496ZM354.91 465.688C355.47 465.688 355.87 466.088 355.87 466.648C355.87 467.208 355.47 467.608 354.91 467.608C354.35 467.608 353.95 467.208 353.95 466.648C353.95 466.088 354.35 465.688 354.91 465.688ZM359.177 474.52C359.513 475.352 360.345 475.736 360.857 475.736C361.657 475.736 362.169 475.432 362.169 474.904C362.169 474.424 361.465 474.2 360.681 473.928C359.641 473.56 358.169 473.064 358.169 471.592C358.169 470.248 359.401 469.432 360.969 469.432C361.913 469.432 363.321 469.976 363.705 471.352L362.281 471.864C362.025 471.016 361.337 470.888 360.969 470.888C360.297 470.888 359.865 471.16 359.865 471.592C359.865 472.072 360.521 472.264 361.337 472.552C362.425 472.936 363.865 473.432 363.865 474.888C363.865 476.28 362.633 477.192 360.857 477.192C359.689 477.192 358.409 476.456 357.849 475.288L359.177 474.52ZM365.765 469.496H367.461V477.128H365.765V469.496ZM366.613 465.688C367.173 465.688 367.573 466.088 367.573 466.648C367.573 467.208 367.173 467.608 366.613 467.608C366.053 467.608 365.653 467.208 365.653 466.648C365.653 466.088 366.053 465.688 366.613 465.688ZM373.2 475.752C374.384 475.752 375.184 474.808 375.184 473.352C375.184 471.912 374.384 470.952 373.2 470.952C372.016 470.952 371.216 471.896 371.216 473.352C371.216 474.808 372 475.752 373.2 475.752ZM373.2 469.496C375.36 469.496 376.88 471.096 376.88 473.352C376.88 475.592 375.36 477.208 373.2 477.208C371.04 477.208 369.52 475.592 369.52 473.352C369.52 471.096 371.04 469.496 373.2 469.496ZM383.806 472.936C383.806 471.72 383.182 470.984 382.126 470.984C381.086 471 380.286 471.816 380.302 472.936V477.144H378.606V469.512H380.302V470.552C380.782 469.96 381.598 469.528 382.334 469.528C383.774 469.528 385.502 470.472 385.502 472.872V477.144H383.806V472.936Z" fill="#15151A"/>
<rect x="253.5" y="512" width="208" height="76" rx="8" fill="#F6F6F7"/>
<path d="M290.467 539.768C291.155 541.112 292.131 541.784 293.155 541.784C294.675 541.8 295.523 541.064 295.523 539.928C295.523 537.24 289.587 538.392 289.587 534.28C289.587 532.328 291.187 531.176 293.379 531.192C294.899 531.208 296.355 532.056 297.011 533.896L295.491 534.44C295.075 533.208 294.243 532.68 293.363 532.664C292.099 532.664 291.283 533.288 291.283 534.28C291.283 536.936 297.203 535.928 297.203 539.944C297.203 541.928 295.651 543.288 293.139 543.256C291.411 543.24 290.035 542.248 289.059 540.552L290.467 539.768ZM308.941 531.32L304.829 543.128H302.845L298.477 531.32H300.285L303.821 540.84L307.133 531.32H308.941ZM314.921 531.32H316.617V543.128H314.921V531.32ZM328.77 538.808C328.77 537.72 328.178 537 327.314 537C326.338 537 325.682 537.752 325.682 538.728V543.144H323.97V538.808C323.97 537.72 323.394 537 322.546 537C321.57 537 320.882 537.832 320.882 538.904V543.144H319.186V535.512H320.882V536.552C321.33 535.944 321.986 535.528 322.706 535.528C323.618 535.528 324.514 536.104 324.962 536.904C325.49 536.104 326.514 535.528 327.426 535.528C329.234 535.528 330.482 536.872 330.482 538.744V543.144H328.77V538.808ZM336.447 541.752C337.679 541.752 338.479 540.792 338.479 539.336C338.479 537.88 337.679 536.92 336.447 536.92C335.295 536.92 334.351 537.992 334.351 539.336C334.351 540.68 335.295 541.752 336.447 541.752ZM336.543 535.496C338.671 535.496 340.175 537.08 340.175 539.336C340.175 541.608 338.671 543.192 336.543 543.192C335.935 543.192 334.943 542.856 334.335 542.056V546.52H332.639V535.496H334.335V536.616C334.943 535.816 335.951 535.496 336.543 535.496ZM341.759 531.704H343.455V543.128H341.759V531.704ZM348.732 543.176C346.572 543.176 345.052 541.592 345.052 539.352C345.052 537.096 346.572 535.512 348.732 535.512C351.1 535.512 351.852 537.448 351.9 537.576C352.364 538.664 352.22 539.88 352.22 540.008H346.716C346.908 541.032 347.772 541.736 348.732 541.736C349.996 541.736 350.508 541 350.636 540.776L351.996 541.384C351.628 542.248 350.556 543.176 348.732 543.176ZM350.62 538.664C350.46 537.72 349.916 536.952 348.732 536.952C347.708 536.952 346.908 537.672 346.716 538.664H350.62ZM363.723 538.808C363.723 537.72 363.131 537 362.267 537C361.291 537 360.635 537.752 360.635 538.728V543.144H358.923V538.808C358.923 537.72 358.347 537 357.499 537C356.523 537 355.835 537.832 355.835 538.904V543.144H354.139V535.512H355.835V536.552C356.283 535.944 356.939 535.528 357.659 535.528C358.571 535.528 359.467 536.104 359.915 536.904C360.443 536.104 361.467 535.528 362.379 535.528C364.187 535.528 365.435 536.872 365.435 538.744V543.144H363.723V538.808ZM370.982 543.176C368.822 543.176 367.302 541.592 367.302 539.352C367.302 537.096 368.822 535.512 370.982 535.512C373.35 535.512 374.102 537.448 374.15 537.576C374.614 538.664 374.47 539.88 374.47 540.008H368.966C369.158 541.032 370.022 541.736 370.982 541.736C372.246 541.736 372.758 541 372.886 540.776L374.246 541.384C373.878 542.248 372.806 543.176 370.982 543.176ZM372.87 538.664C372.71 537.72 372.166 536.952 370.982 536.952C369.958 536.952 369.158 537.672 368.966 538.664H372.87ZM381.477 538.936C381.477 537.72 380.853 536.984 379.797 536.984C378.757 537 377.957 537.816 377.973 538.936V543.144H376.277V535.512H377.973V536.552C378.453 535.96 379.269 535.528 380.005 535.528C381.445 535.528 383.173 536.472 383.173 538.872V543.144H381.477V538.936ZM385.972 543.144V536.968H384.532V535.496H385.972V532.824H387.668V535.496H389.476V536.968H387.668V543.144H385.972ZM394.293 543.208C392.181 543.208 390.677 541.608 390.677 539.368C390.677 537.128 392.181 535.528 394.293 535.528C395.045 535.528 395.877 535.88 396.485 536.6V535.512H398.181V543.144H396.485V542.12C395.877 542.888 395.045 543.208 394.293 543.208ZM394.405 541.768C395.525 541.768 396.485 540.76 396.501 539.368C396.485 537.976 395.525 536.968 394.405 536.968C393.189 536.968 392.373 537.912 392.373 539.368C392.373 540.808 393.189 541.768 394.405 541.768ZM401.144 543.144V536.968H399.704V535.496H401.144V532.824H402.84V535.496H404.648V536.968H402.84V543.144H401.144ZM406.39 535.496H408.086V543.128H406.39V535.496ZM407.238 531.688C407.798 531.688 408.198 532.088 408.198 532.648C408.198 533.208 407.798 533.608 407.238 533.608C406.678 533.608 406.278 533.208 406.278 532.648C406.278 532.088 406.678 531.688 407.238 531.688ZM413.825 541.752C415.009 541.752 415.809 540.808 415.809 539.352C415.809 537.912 415.009 536.952 413.825 536.952C412.641 536.952 411.841 537.896 411.841 539.352C411.841 540.808 412.625 541.752 413.825 541.752ZM413.825 535.496C415.985 535.496 417.505 537.096 417.505 539.352C417.505 541.592 415.985 543.208 413.825 543.208C411.665 543.208 410.145 541.592 410.145 539.352C410.145 537.096 411.665 535.496 413.825 535.496ZM424.431 538.936C424.431 537.72 423.807 536.984 422.751 536.984C421.711 537 420.911 537.816 420.927 538.936V543.144H419.231V535.512H420.927V536.552C421.407 535.96 422.223 535.528 422.959 535.528C424.399 535.528 426.127 536.472 426.127 538.872V543.144H424.431V538.936ZM346.711 557.32V558.808H343.383V569.128H341.671V558.808H338.327V557.32H346.711ZM350.427 569.176C348.267 569.176 346.747 567.592 346.747 565.352C346.747 563.096 348.267 561.512 350.427 561.512C352.795 561.512 353.547 563.448 353.595 563.576C354.059 564.664 353.915 565.88 353.915 566.008H348.411C348.603 567.032 349.467 567.736 350.427 567.736C351.691 567.736 352.203 567 352.331 566.776L353.691 567.384C353.323 568.248 352.251 569.176 350.427 569.176ZM352.315 564.664C352.155 563.72 351.611 562.952 350.427 562.952C349.403 562.952 348.603 563.672 348.411 564.664H352.315ZM359.097 569.208C356.985 569.208 355.481 567.608 355.481 565.368C355.481 563.128 356.985 561.528 359.097 561.528C359.849 561.528 360.681 561.88 361.289 562.6V561.512H362.985V569.144H361.289V568.12C360.681 568.888 359.849 569.208 359.097 569.208ZM359.209 567.768C360.329 567.768 361.289 566.76 361.305 565.368C361.289 563.976 360.329 562.968 359.209 562.968C357.993 562.968 357.177 563.912 357.177 565.368C357.177 566.808 357.993 567.768 359.209 567.768ZM374.762 564.808C374.762 563.72 374.17 563 373.306 563C372.33 563 371.674 563.752 371.674 564.728V569.144H369.962V564.808C369.962 563.72 369.386 563 368.538 563C367.562 563 366.874 563.832 366.874 564.904V569.144H365.178V561.512H366.874V562.552C367.322 561.944 367.978 561.528 368.698 561.528C369.61 561.528 370.506 562.104 370.954 562.904C371.482 562.104 372.506 561.528 373.418 561.528C375.226 561.528 376.474 562.872 376.474 564.744V569.144H374.762V564.808Z" fill="#15151A"/>
<g filter="url(#filter3_d_17162_10207)">
<rect x="481.5" y="512" width="208" height="76" rx="8" fill="white" shape-rendering="crispEdges"/>
<path d="M517.466 543.36V545.034H510.788V548.976H516.53V550.632H510.788V554.97H517.466V556.644H508.88V543.36H517.466ZM525.718 551.928C525.718 550.56 525.016 549.732 523.828 549.732C522.658 549.75 521.758 550.668 521.776 551.928V556.662H519.868V548.076H521.776V549.246C522.316 548.58 523.234 548.094 524.062 548.094C525.682 548.094 527.626 549.156 527.626 551.856V556.662H525.718V551.928ZM538.099 548.076L534.463 556.662H532.807L529.207 548.076H531.295L533.635 554.088L535.993 548.076H538.099ZM539.998 548.058H541.906V556.644H539.998V548.058ZM540.952 543.774C541.582 543.774 542.032 544.224 542.032 544.854C542.032 545.484 541.582 545.934 540.952 545.934C540.322 545.934 539.872 545.484 539.872 544.854C539.872 544.224 540.322 543.774 540.952 543.774ZM544.475 556.662V548.076H546.383V549.336C546.959 548.526 548.003 547.986 549.011 548.04V549.804C547.481 549.732 546.383 551.082 546.383 552.396V556.662H544.475ZM554.129 555.096C555.461 555.096 556.361 554.034 556.361 552.396C556.361 550.776 555.461 549.696 554.129 549.696C552.797 549.696 551.897 550.758 551.897 552.396C551.897 554.034 552.779 555.096 554.129 555.096ZM554.129 548.058C556.559 548.058 558.269 549.858 558.269 552.396C558.269 554.916 556.559 556.734 554.129 556.734C551.699 556.734 549.989 554.916 549.989 552.396C549.989 549.858 551.699 548.058 554.129 548.058ZM566.06 551.928C566.06 550.56 565.358 549.732 564.17 549.732C563 549.75 562.1 550.668 562.118 551.928V556.662H560.21V548.076H562.118V549.246C562.658 548.58 563.576 548.094 564.404 548.094C566.024 548.094 567.968 549.156 567.968 551.856V556.662H566.06V551.928ZM581.032 551.784C581.032 550.56 580.366 549.75 579.394 549.75C578.296 549.75 577.558 550.596 577.558 551.694V556.662H575.632V551.784C575.632 550.56 574.984 549.75 574.03 549.75C572.932 549.75 572.158 550.686 572.158 551.892V556.662H570.25V548.076H572.158V549.246C572.662 548.562 573.4 548.094 574.21 548.094C575.236 548.094 576.244 548.742 576.748 549.642C577.342 548.742 578.494 548.094 579.52 548.094C581.554 548.094 582.958 549.606 582.958 551.712V556.662H581.032V551.784ZM589.197 556.698C586.767 556.698 585.057 554.916 585.057 552.396C585.057 549.858 586.767 548.076 589.197 548.076C591.861 548.076 592.707 550.254 592.761 550.398C593.283 551.622 593.121 552.99 593.121 553.134H586.929C587.145 554.286 588.117 555.078 589.197 555.078C590.619 555.078 591.195 554.25 591.339 553.998L592.869 554.682C592.455 555.654 591.249 556.698 589.197 556.698ZM591.321 551.622C591.141 550.56 590.529 549.696 589.197 549.696C588.045 549.696 587.145 550.506 586.929 551.622H591.321ZM601.005 551.928C601.005 550.56 600.303 549.732 599.115 549.732C597.945 549.75 597.045 550.668 597.063 551.928V556.662H595.155V548.076H597.063V549.246C597.603 548.58 598.521 548.094 599.349 548.094C600.969 548.094 602.913 549.156 602.913 551.856V556.662H601.005V551.928ZM606.061 556.662V549.714H604.441V548.058H606.061V545.052H607.969V548.058H610.003V549.714H607.969V556.662H606.061ZM615.422 556.734C613.046 556.734 611.354 554.934 611.354 552.414C611.354 549.894 613.046 548.094 615.422 548.094C616.268 548.094 617.204 548.49 617.888 549.3V548.076H619.796V556.662H617.888V555.51C617.204 556.374 616.268 556.734 615.422 556.734ZM615.548 555.114C616.808 555.114 617.888 553.98 617.906 552.414C617.888 550.848 616.808 549.714 615.548 549.714C614.18 549.714 613.262 550.776 613.262 552.414C613.262 554.034 614.18 555.114 615.548 555.114ZM622.116 543.792H624.024V556.644H622.116V543.792ZM637.179 556.788C633.327 556.788 630.627 553.98 630.627 550.002C630.627 546.006 633.327 543.216 637.179 543.216C638.997 543.216 640.617 543.99 641.805 545.196L640.545 546.438C639.753 545.502 638.493 544.89 637.161 544.89C634.407 544.89 632.553 546.942 632.553 550.002C632.553 553.062 634.407 555.114 637.161 555.114C638.583 555.114 639.717 554.466 640.473 553.602L641.805 554.808C640.617 556.014 639.087 556.806 637.179 556.788ZM647.504 555.096C648.836 555.096 649.736 554.034 649.736 552.396C649.736 550.776 648.836 549.696 647.504 549.696C646.172 549.696 645.272 550.758 645.272 552.396C645.272 554.034 646.154 555.096 647.504 555.096ZM647.504 548.058C649.934 548.058 651.644 549.858 651.644 552.396C651.644 554.916 649.934 556.734 647.504 556.734C645.074 556.734 643.364 554.916 643.364 552.396C643.364 549.858 645.074 548.058 647.504 548.058ZM662.274 543.36V545.034H655.596V548.976H661.338V550.632H655.596V554.97H662.274V556.644H653.688V543.36H662.274Z" fill="#6D0CA6"/>
</g>
<g filter="url(#filter4_d_17162_10207)">
<rect x="480.5" y="328" width="208" height="72" rx="8" fill="white" shape-rendering="crispEdges"/>
<path d="M534.26 366.96C535.12 368.64 536.34 369.48 537.62 369.48C539.52 369.5 540.58 368.58 540.58 367.16C540.58 363.8 533.16 365.24 533.16 360.1C533.16 357.66 535.16 356.22 537.9 356.24C539.8 356.26 541.62 357.32 542.44 359.62L540.54 360.3C540.02 358.76 538.98 358.1 537.88 358.08C536.3 358.08 535.28 358.86 535.28 360.1C535.28 363.42 542.68 362.16 542.68 367.18C542.68 369.66 540.74 371.36 537.6 371.32C535.44 371.3 533.72 370.06 532.5 367.94L534.26 366.96ZM557.352 356.4L552.212 371.16H549.732L544.272 356.4H546.532L550.952 368.3L555.092 356.4H557.352ZM576.787 365.76C576.787 364.4 576.047 363.5 574.967 363.5C573.747 363.5 572.927 364.44 572.927 365.66V371.18H570.787V365.76C570.787 364.4 570.067 363.5 569.007 363.5C567.787 363.5 566.927 364.54 566.927 365.88V371.18H564.807V361.64H566.927V362.94C567.487 362.18 568.307 361.66 569.207 361.66C570.347 361.66 571.467 362.38 572.027 363.38C572.687 362.38 573.967 361.66 575.107 361.66C577.367 361.66 578.927 363.34 578.927 365.68V371.18H576.787V365.76ZM585.86 371.22C583.16 371.22 581.26 369.24 581.26 366.44C581.26 363.62 583.16 361.64 585.86 361.64C588.82 361.64 589.76 364.06 589.82 364.22C590.4 365.58 590.22 367.1 590.22 367.26H583.34C583.58 368.54 584.66 369.42 585.86 369.42C587.44 369.42 588.08 368.5 588.24 368.22L589.94 368.98C589.48 370.06 588.14 371.22 585.86 371.22ZM588.22 365.58C588.02 364.4 587.34 363.44 585.86 363.44C584.58 363.44 583.58 364.34 583.34 365.58H588.22ZM596.778 371.22C594.078 371.22 592.178 369.24 592.178 366.44C592.178 363.62 594.078 361.64 596.778 361.64C599.738 361.64 600.678 364.06 600.738 364.22C601.318 365.58 601.138 367.1 601.138 367.26H594.258C594.498 368.54 595.578 369.42 596.778 369.42C598.358 369.42 598.998 368.5 599.158 368.22L600.858 368.98C600.398 370.06 599.058 371.22 596.778 371.22ZM599.138 365.58C598.938 364.4 598.258 363.44 596.778 363.44C595.498 363.44 594.498 364.34 594.258 365.58H599.138ZM604.187 371.18V363.46H602.387V361.62H604.187V358.28H606.307V361.62H608.567V363.46H606.307V371.18H604.187ZM617.94 367.08C617.94 368.54 618.8 369.44 620.06 369.44C621.4 369.44 622.32 368.56 622.3 367.1V361.64H624.44V371.18H622.3V370.08C621.7 370.82 620.72 371.26 619.78 371.26C617.48 371.26 615.82 369.6 615.82 367.16V361.64H617.94V367.08ZM632.047 369.44C633.587 369.44 634.587 368.24 634.587 366.42C634.587 364.6 633.587 363.4 632.047 363.4C630.607 363.4 629.427 364.74 629.427 366.42C629.427 368.1 630.607 369.44 632.047 369.44ZM632.167 361.62C634.827 361.62 636.707 363.6 636.707 366.42C636.707 369.26 634.827 371.24 632.167 371.24C631.407 371.24 630.167 370.82 629.407 369.82V375.4H627.287V361.62H629.407V363.02C630.167 362.02 631.427 361.62 632.167 361.62Z" fill="#6D0CA6"/>
</g>
</g>
<defs>
<filter id="filter0_d_17162_10207" x="715.658" y="323.993" width="218.685" height="114.685" filterUnits="userSpaceOnUse" color-interpolation-filters="sRGB">
<feFlood flood-opacity="0" result="BackgroundImageFix"/>
<feColorMatrix in="SourceAlpha" type="matrix" values="0 0 0 0 0 0 0 0 0 0 0 0 0 0 0 0 0 0 127 0" result="hardAlpha"/>
<feOffset dy="1.33562"/>
<feGaussianBlur stdDeviation="2.67123"/>
<feComposite in2="hardAlpha" operator="out"/>
<feColorMatrix type="matrix" values="0 0 0 0 0 0 0 0 0 0 0 0 0 0 0 0 0 0 0.1 0"/>
<feBlend mode="normal" in2="BackgroundImageFix" result="effect1_dropShadow_17162_10207"/>
<feBlend mode="normal" in="SourceGraphic" in2="effect1_dropShadow_17162_10207" result="shape"/>
</filter>
<filter id="filter1_d_17162_10207" x="409" y="-8" width="280" height="144" filterUnits="userSpaceOnUse" color-interpolation-filters="sRGB">
<feFlood flood-opacity="0" result="BackgroundImageFix"/>
<feColorMatrix in="SourceAlpha" type="matrix" values="0 0 0 0 0 0 0 0 0 0 0 0 0 0 0 0 0 0 127 0" result="hardAlpha"/>
<feOffset/>
<feGaussianBlur stdDeviation="18"/>
<feComposite in2="hardAlpha" operator="out"/>
<feColorMatrix type="matrix" values="0 0 0 0 0.592485 0 0 0 0 0.207569 0 0 0 0 0.816667 0 0 0 0.5 0"/>
<feBlend mode="normal" in2="BackgroundImageFix" result="effect1_dropShadow_17162_10207"/>
<feBlend mode="normal" in="SourceGraphic" in2="effect1_dropShadow_17162_10207" result="shape"/>
</filter>
<filter id="filter2_d_17162_10207" x="165.158" y="173.993" width="218.685" height="86.6849" filterUnits="userSpaceOnUse" color-interpolation-filters="sRGB">
<feFlood flood-opacity="0" result="BackgroundImageFix"/>
<feColorMatrix in="SourceAlpha" type="matrix" values="0 0 0 0 0 0 0 0 0 0 0 0 0 0 0 0 0 0 127 0" result="hardAlpha"/>
<feOffset dy="1.33562"/>
<feGaussianBlur stdDeviation="2.67123"/>
<feComposite in2="hardAlpha" operator="out"/>
<feColorMatrix type="matrix" values="0 0 0 0 0 0 0 0 0 0 0 0 0 0 0 0 0 0 0.1 0"/>
<feBlend mode="normal" in2="BackgroundImageFix" result="effect1_dropShadow_17162_10207"/>
<feBlend mode="normal" in="SourceGraphic" in2="effect1_dropShadow_17162_10207" result="shape"/>
</filter>
<filter id="filter3_d_17162_10207" x="476.158" y="507.993" width="218.685" height="86.6849" filterUnits="userSpaceOnUse" color-interpolation-filters="sRGB">
<feFlood flood-opacity="0" result="BackgroundImageFix"/>
<feColorMatrix in="SourceAlpha" type="matrix" values="0 0 0 0 0 0 0 0 0 0 0 0 0 0 0 0 0 0 127 0" result="hardAlpha"/>
<feOffset dy="1.33562"/>
<feGaussianBlur stdDeviation="2.67123"/>
<feComposite in2="hardAlpha" operator="out"/>
<feColorMatrix type="matrix" values="0 0 0 0 0 0 0 0 0 0 0 0 0 0 0 0 0 0 0.1 0"/>
<feBlend mode="normal" in2="BackgroundImageFix" result="effect1_dropShadow_17162_10207"/>
<feBlend mode="normal" in="SourceGraphic" in2="effect1_dropShadow_17162_10207" result="shape"/>
</filter>
<filter id="filter4_d_17162_10207" x="475.158" y="323.993" width="218.685" height="82.6849" filterUnits="userSpaceOnUse" color-interpolation-filters="sRGB">
<feFlood flood-opacity="0" result="BackgroundImageFix"/>
<feColorMatrix in="SourceAlpha" type="matrix" values="0 0 0 0 0 0 0 0 0 0 0 0 0 0 0 0 0 0 127 0" result="hardAlpha"/>
<feOffset dy="1.33562"/>
<feGaussianBlur stdDeviation="2.67123"/>
<feComposite in2="hardAlpha" operator="out"/>
<feColorMatrix type="matrix" values="0 0 0 0 0 0 0 0 0 0 0 0 0 0 0 0 0 0 0.1 0"/>
<feBlend mode="normal" in2="BackgroundImageFix" result="effect1_dropShadow_17162_10207"/>
<feBlend mode="normal" in="SourceGraphic" in2="effect1_dropShadow_17162_10207" result="shape"/>
</filter>
<clipPath id="clip0_17162_10207">
<rect width="1098" height="600" rx="16" fill="white"/>
</clipPath>
</defs>
</svg>
