<svg width="1098" height="600" viewBox="0 0 1098 600" fill="none" xmlns="http://www.w3.org/2000/svg">
<g clip-path="url(#clip0_9277_53619)">
<g filter="url(#filter0_d_9277_53619)">
<rect x="720.5" y="328" width="208" height="72" rx="8" fill="white" shape-rendering="crispEdges"/>
<path d="M762.66 359.52H765.76V354.82H767.96V367.8H765.76V361.3H762.66V359.52ZM756.34 366.7H758.56V370.5H768.4V372.26H756.34V366.7ZM753.74 356.1H763.3V357.86H759.66V358.34C759.66 360.5 761.08 362.72 763.8 363.64L762.72 365.36C760.74 364.68 759.36 363.32 758.58 361.62C757.82 363.5 756.34 365.02 754.24 365.74L753.12 364C755.94 363.04 757.44 360.7 757.44 358.34V357.86H753.74V356.1ZM771.32 355.84H779.42V361.08H773.54V363.1C776.52 363.08 778.6 362.98 781 362.54L781.2 364.32C778.6 364.8 776.28 364.88 772.82 364.88H771.36V359.44H777.24V357.58H771.32V355.84ZM782.4 354.82H784.6V357.42H787.06V359.22H784.6V361.18H787.06V362.98H784.6V365.64H782.4V354.82ZM772.84 366.5H784.6V372.62H782.4V368.26H772.84V366.5ZM792.601 362.14C793.481 362.14 794.101 362.76 794.101 363.62C794.101 364.5 793.481 365.12 792.601 365.12C791.721 365.12 791.121 364.5 791.121 363.62C791.121 362.76 791.721 362.14 792.601 362.14ZM808.674 356.4V358.26H801.254V362.64H807.634V364.48H801.254V369.3H808.674V371.16H799.134V356.4H808.674ZM812.83 366.96C813.69 368.64 814.91 369.48 816.19 369.48C818.09 369.5 819.15 368.58 819.15 367.16C819.15 363.8 811.73 365.24 811.73 360.1C811.73 357.66 813.73 356.22 816.47 356.24C818.37 356.26 820.19 357.32 821.01 359.62L819.11 360.3C818.59 358.76 817.55 358.1 816.45 358.08C814.87 358.08 813.85 358.86 813.85 360.1C813.85 363.42 821.25 362.16 821.25 367.18C821.25 369.66 819.31 371.36 816.17 371.32C814.01 371.3 812.29 370.06 811.07 367.94L812.83 366.96ZM837.518 363.42L837.498 364.7C837.498 368.84 834.678 371.26 830.578 371.32C826.278 371.32 823.238 368.2 823.238 363.78C823.238 359.36 826.278 356.26 830.578 356.26C835.198 356.26 836.818 359.82 836.818 359.82L834.998 360.76C834.998 360.76 833.838 358.12 830.578 358.12C827.458 358.12 825.358 360.4 825.358 363.78C825.358 367.18 827.458 369.46 830.578 369.46C833.258 369.38 835.398 368.08 835.418 365.18H830.818V363.42H837.518ZM850.229 355.56C852.909 355.56 854.849 357.1 854.849 359.32C854.849 361.5 852.909 363.06 850.229 363.06C847.569 363.06 845.609 361.5 845.609 359.32C845.609 357.1 847.569 355.56 850.229 355.56ZM850.229 357.36C848.789 357.36 847.729 358.1 847.729 359.32C847.729 360.52 848.789 361.26 850.229 361.26C851.689 361.26 852.749 360.52 852.749 359.32C852.749 358.1 851.689 357.36 850.229 357.36ZM857.029 354.8H859.229V372.62H857.029V354.8ZM844.469 364.28C847.649 364.28 852.089 364.26 855.929 363.66L856.069 365.28C854.529 365.58 852.949 365.76 851.409 365.88V372.06H849.209V366.02C847.589 366.08 846.069 366.1 844.729 366.1L844.469 364.28ZM874.55 354.8H876.75V368.32H874.55V366.74H871.11V365.22H874.55V354.8ZM864.19 367.02H866.39V370.5H877.17V372.26H864.19V367.02ZM861.85 362.82C865.11 362.8 869.47 362.76 873.25 362.3L873.37 363.86C871.93 364.1 870.41 364.26 868.93 364.36V367.78H866.73V364.48C865.09 364.56 863.51 364.58 862.13 364.58L861.85 362.82ZM867.59 355.46C870.21 355.46 872.01 356.72 872.01 358.6C872.01 360.52 870.21 361.76 867.59 361.76C864.99 361.76 863.17 360.52 863.17 358.6C863.17 356.72 864.99 355.46 867.59 355.46ZM867.59 357.06C866.23 357.06 865.27 357.62 865.27 358.6C865.27 359.58 866.23 360.14 867.59 360.14C868.99 360.14 869.91 359.58 869.91 358.6C869.91 357.62 868.99 357.06 867.59 357.06ZM891.93 354.82H894.11V372.62H891.93V354.82ZM879.51 367.68C880.89 367.68 882.47 367.68 884.13 367.64V365.98C882.15 365.66 880.87 364.44 880.87 362.74C880.87 360.74 882.63 359.42 885.23 359.42C887.81 359.42 889.61 360.74 889.61 362.74C889.61 364.44 888.31 365.66 886.33 365.98V367.56C887.89 367.48 889.45 367.36 890.93 367.16L891.07 368.74C887.17 369.46 882.97 369.48 879.77 369.48L879.51 367.68ZM879.85 356.86H884.13V354.86H886.33V356.86H890.61V358.58H879.85V356.86ZM885.23 361.08C883.89 361.08 882.95 361.7 882.95 362.74C882.95 363.78 883.89 364.4 885.23 364.4C886.59 364.4 887.51 363.78 887.51 362.74C887.51 361.7 886.59 361.08 885.23 361.08Z" fill="#6D0CA6"/>
</g>
<line x1="549.5" y1="100" x2="549.5" y2="138" stroke="#71717A"/>
<path d="M274 178V146C274 141.582 277.582 138 282 138H817C821.418 138 825 141.582 825 146V178" stroke="#71717A"/>
<path d="M357 328V296C357 291.582 360.582 288 365 288H825V328" stroke="#71717A"/>
<path d="M824.5 250L824.5 288" stroke="#71717A"/>
<line x1="357.5" y1="364" x2="357.5" y2="548" stroke="#71717A"/>
<line x1="425" y1="547.5" x2="609" y2="547.5" stroke="#71717A" stroke-dasharray="3 3"/>
<line x1="425" y1="363.5" x2="609" y2="363.5" stroke="#71717A" stroke-dasharray="3 3"/>
<g filter="url(#filter1_d_9277_53619)">
<rect x="445" y="28" width="208" height="72" rx="8" fill="#9735D0" shape-rendering="crispEdges"/>
<path d="M528.1 71.16V56.4H533.02C535.38 56.4 537.06 58.06 537.06 60.42C537.06 61.34 536.58 62.4 535.86 63.14L536.38 63.46C537.48 64.18 538.28 65.62 538.28 66.96C538.28 69.42 536.6 71.16 534.22 71.16H528.1ZM534 69.3C535.3 69.3 536.18 68.36 536.18 66.98C536.18 65.48 535.3 64.48 534 64.48H530.22V69.3H534ZM533.06 62.64C534.2 62.58 534.98 61.74 534.98 60.52C534.98 59.16 534.12 58.26 532.84 58.26H530.22V62.64H533.06ZM547.84 69.46C550.96 69.46 553.06 67.18 553.06 63.78C553.06 60.38 550.96 58.1 547.84 58.1C544.72 58.1 542.64 60.38 542.64 63.78C542.64 67.18 544.72 69.46 547.84 69.46ZM547.84 56.24C552.16 56.24 555.2 59.36 555.2 63.78C555.2 68.2 552.16 71.32 547.84 71.32C543.54 71.32 540.5 68.2 540.5 63.78C540.5 59.36 543.54 56.24 547.84 56.24ZM561.891 69.3C565.051 69.3 567.171 67.08 567.171 63.78C567.171 60.48 565.051 58.26 561.891 58.26L559.791 58.28V69.28L561.891 69.3ZM561.911 56.4C566.231 56.4 569.271 59.44 569.271 63.78C569.271 68.12 566.231 71.16 561.911 71.16H557.671V56.4H561.911Z" fill="white"/>
</g>
<rect x="720.5" y="178" width="208" height="72" rx="8" fill="#F5EBFB"/>
<path d="M810.7 221.32C806.42 221.32 803.42 218.2 803.42 213.78C803.42 209.34 806.42 206.24 810.7 206.24C812.72 206.24 814.52 207.1 815.84 208.44L814.44 209.82C813.56 208.78 812.16 208.1 810.68 208.1C807.62 208.1 805.56 210.38 805.56 213.78C805.56 217.18 807.62 219.46 810.68 219.46C812.26 219.46 813.52 218.74 814.36 217.78L815.84 219.12C814.52 220.46 812.82 221.34 810.7 221.32ZM827.803 206.4V208.26H820.383V212.64H826.763V214.48H820.383V219.3H827.803V221.16H818.263V206.4H827.803ZM837.441 219.46C840.561 219.46 842.661 217.18 842.661 213.78C842.661 210.38 840.561 208.1 837.441 208.1C834.321 208.1 832.241 210.38 832.241 213.78C832.241 217.18 834.321 219.46 837.441 219.46ZM837.441 206.24C841.761 206.24 844.801 209.36 844.801 213.78C844.801 218.2 841.761 221.32 837.441 221.32C833.141 221.32 830.101 218.2 830.101 213.78C830.101 209.36 833.141 206.24 837.441 206.24Z" fill="#6D0CA6"/>
<g filter="url(#filter2_d_9277_53619)">
<rect x="170" y="178" width="208" height="72" rx="8" fill="white" shape-rendering="crispEdges"/>
<path d="M217.92 206.4V208.26H210.5V212.64H216.88V214.48H210.5V219.3H217.92V221.16H208.38V206.4H217.92ZM222.076 216.96C222.936 218.64 224.156 219.48 225.436 219.48C227.336 219.5 228.396 218.58 228.396 217.16C228.396 213.8 220.976 215.24 220.976 210.1C220.976 207.66 222.976 206.22 225.716 206.24C227.616 206.26 229.436 207.32 230.256 209.62L228.356 210.3C227.836 208.76 226.796 208.1 225.696 208.08C224.116 208.08 223.096 208.86 223.096 210.1C223.096 213.42 230.496 212.16 230.496 217.18C230.496 219.66 228.556 221.36 225.416 221.32C223.256 221.3 221.536 220.06 220.316 217.94L222.076 216.96ZM246.764 213.42L246.744 214.7C246.744 218.84 243.924 221.26 239.824 221.32C235.524 221.32 232.484 218.2 232.484 213.78C232.484 209.36 235.524 206.26 239.824 206.26C244.444 206.26 246.064 209.82 246.064 209.82L244.244 210.76C244.244 210.76 243.084 208.12 239.824 208.12C236.704 208.12 234.604 210.4 234.604 213.78C234.604 217.18 236.704 219.46 239.824 219.46C242.504 219.38 244.644 218.08 244.664 215.18H240.064V213.42H246.764ZM262.095 211.5H266.295V209.56H262.295C261.175 212.38 258.595 214.36 254.735 215.46L253.875 213.72C258.035 212.6 260.215 210.48 260.535 207.82H254.815V206.06H262.915C262.915 206.66 262.875 207.24 262.775 207.8H266.295V204.8H268.495V215.22H266.295V213.26H262.095V211.5ZM262.635 215.44C266.235 215.44 268.595 216.78 268.595 218.98C268.595 221.16 266.235 222.52 262.635 222.52C259.015 222.52 256.675 221.16 256.675 218.98C256.675 216.78 259.015 215.44 262.635 215.44ZM262.635 217.14C260.295 217.14 258.855 217.78 258.855 218.98C258.855 220.16 260.295 220.82 262.635 220.82C264.995 220.82 266.435 220.16 266.435 218.98C266.435 217.78 264.995 217.14 262.635 217.14ZM276.076 205.8C277.516 205.8 278.756 206.34 279.596 207.24H283.776V204.82H285.976V215.28H283.776V213.02H279.576C278.736 213.9 277.496 214.42 276.076 214.42C273.416 214.42 271.416 212.62 271.416 210.12C271.416 207.6 273.416 205.8 276.076 205.8ZM276.076 207.66C274.596 207.66 273.496 208.6 273.496 210.12C273.496 211.6 274.596 212.56 276.076 212.56C277.556 212.56 278.616 211.6 278.616 210.12C278.616 208.6 277.556 207.66 276.076 207.66ZM280.016 215.66C283.716 215.66 286.036 216.94 286.036 219.14C286.036 221.32 283.716 222.6 280.016 222.6C276.296 222.6 273.976 221.32 273.976 219.14C273.976 216.94 276.296 215.66 280.016 215.66ZM280.016 217.36C277.536 217.36 276.136 217.98 276.136 219.14C276.136 220.28 277.536 220.9 280.016 220.9C282.496 220.9 283.876 220.28 283.876 219.14C283.876 217.98 282.496 217.36 280.016 217.36ZM280.576 211.24H283.776V209H280.576C280.676 209.36 280.716 209.72 280.716 210.12C280.716 210.52 280.676 210.88 280.576 211.24ZM294.436 205.56C297.116 205.56 299.056 207.1 299.056 209.32C299.056 211.5 297.116 213.06 294.436 213.06C291.776 213.06 289.816 211.5 289.816 209.32C289.816 207.1 291.776 205.56 294.436 205.56ZM294.436 207.36C292.996 207.36 291.936 208.1 291.936 209.32C291.936 210.52 292.996 211.26 294.436 211.26C295.896 211.26 296.956 210.52 296.956 209.32C296.956 208.1 295.896 207.36 294.436 207.36ZM301.236 204.8H303.436V222.62H301.236V204.8ZM288.676 214.28C291.856 214.28 296.296 214.26 300.136 213.66L300.276 215.28C298.736 215.58 297.156 215.76 295.616 215.88V222.06H293.416V216.02C291.796 216.08 290.276 216.1 288.936 216.1L288.676 214.28ZM318.757 204.8H320.957V218.32H318.757V216.74H315.317V215.22H318.757V204.8ZM308.397 217.02H310.597V220.5H321.377V222.26H308.397V217.02ZM306.057 212.82C309.317 212.8 313.677 212.76 317.457 212.3L317.577 213.86C316.137 214.1 314.617 214.26 313.137 214.36V217.78H310.937V214.48C309.297 214.56 307.717 214.58 306.337 214.58L306.057 212.82ZM311.797 205.46C314.417 205.46 316.217 206.72 316.217 208.6C316.217 210.52 314.417 211.76 311.797 211.76C309.197 211.76 307.377 210.52 307.377 208.6C307.377 206.72 309.197 205.46 311.797 205.46ZM311.797 207.06C310.437 207.06 309.477 207.62 309.477 208.6C309.477 209.58 310.437 210.14 311.797 210.14C313.197 210.14 314.117 209.58 314.117 208.6C314.117 207.62 313.197 207.06 311.797 207.06ZM336.137 204.82H338.317V222.62H336.137V204.82ZM323.717 217.68C325.097 217.68 326.677 217.68 328.337 217.64V215.98C326.357 215.66 325.077 214.44 325.077 212.74C325.077 210.74 326.837 209.42 329.437 209.42C332.017 209.42 333.817 210.74 333.817 212.74C333.817 214.44 332.517 215.66 330.537 215.98V217.56C332.097 217.48 333.657 217.36 335.137 217.16L335.277 218.74C331.377 219.46 327.177 219.48 323.977 219.48L323.717 217.68ZM324.057 206.86H328.337V204.86H330.537V206.86H334.817V208.58H324.057V206.86ZM329.437 211.08C328.097 211.08 327.157 211.7 327.157 212.74C327.157 213.78 328.097 214.4 329.437 214.4C330.797 214.4 331.717 213.78 331.717 212.74C331.717 211.7 330.797 211.08 329.437 211.08Z" fill="#6D0CA6"/>
</g>
<rect x="253" y="328" width="208" height="72" rx="8" fill="#F6F6F7"/>
<path d="M304.56 361.5H308.76V359.56H304.76C303.64 362.38 301.06 364.36 297.2 365.46L296.34 363.72C300.5 362.6 302.68 360.48 303 357.82H297.28V356.06H305.38C305.38 356.66 305.34 357.24 305.24 357.8H308.76V354.8H310.96V365.22H308.76V363.26H304.56V361.5ZM305.1 365.44C308.7 365.44 311.06 366.78 311.06 368.98C311.06 371.16 308.7 372.52 305.1 372.52C301.48 372.52 299.14 371.16 299.14 368.98C299.14 366.78 301.48 365.44 305.1 365.44ZM305.1 367.14C302.76 367.14 301.32 367.78 301.32 368.98C301.32 370.16 302.76 370.82 305.1 370.82C307.46 370.82 308.9 370.16 308.9 368.98C308.9 367.78 307.46 367.14 305.1 367.14ZM318.54 355.8C319.98 355.8 321.22 356.34 322.06 357.24H326.24V354.82H328.44V365.28H326.24V363.02H322.04C321.2 363.9 319.96 364.42 318.54 364.42C315.88 364.42 313.88 362.62 313.88 360.12C313.88 357.6 315.88 355.8 318.54 355.8ZM318.54 357.66C317.06 357.66 315.96 358.6 315.96 360.12C315.96 361.6 317.06 362.56 318.54 362.56C320.02 362.56 321.08 361.6 321.08 360.12C321.08 358.6 320.02 357.66 318.54 357.66ZM322.48 365.66C326.18 365.66 328.5 366.94 328.5 369.14C328.5 371.32 326.18 372.6 322.48 372.6C318.76 372.6 316.44 371.32 316.44 369.14C316.44 366.94 318.76 365.66 322.48 365.66ZM322.48 367.36C320 367.36 318.6 367.98 318.6 369.14C318.6 370.28 320 370.9 322.48 370.9C324.96 370.9 326.34 370.28 326.34 369.14C326.34 367.98 324.96 367.36 322.48 367.36ZM323.04 361.24H326.24V359H323.04C323.14 359.36 323.18 359.72 323.18 360.12C323.18 360.52 323.14 360.88 323.04 361.24ZM331.681 356.56H341.661V358.38H337.781V359.86C337.781 362.8 339.501 365.86 342.321 367.06L341.101 368.8C339.041 367.88 337.521 366.02 336.701 363.76C335.901 366.2 334.361 368.26 332.281 369.24L331.021 367.5C333.841 366.2 335.561 362.9 335.561 359.86V358.38H331.681V356.56ZM343.601 354.82H345.801V372.62H343.601V354.82ZM361.221 354.8H363.421V368.32H361.221V366.74H357.781V365.22H361.221V354.8ZM350.861 367.02H353.061V370.5H363.841V372.26H350.861V367.02ZM348.521 362.82C351.781 362.8 356.141 362.76 359.921 362.3L360.041 363.86C358.601 364.1 357.081 364.26 355.601 364.36V367.78H353.401V364.48C351.761 364.56 350.181 364.58 348.801 364.58L348.521 362.82ZM354.261 355.46C356.881 355.46 358.681 356.72 358.681 358.6C358.681 360.52 356.881 361.76 354.261 361.76C351.661 361.76 349.841 360.52 349.841 358.6C349.841 356.72 351.661 355.46 354.261 355.46ZM354.261 357.06C352.901 357.06 351.941 357.62 351.941 358.6C351.941 359.58 352.901 360.14 354.261 360.14C355.661 360.14 356.581 359.58 356.581 358.6C356.581 357.62 355.661 357.06 354.261 357.06ZM368.182 355.48H370.362V357.4H377.922V355.48H380.122V362.68H375.222V364.34H382.182V366.1H366.102V364.34H373.022V362.68H368.182V355.48ZM370.362 359.1V360.96H377.922V359.1H370.362ZM368.102 367.3H370.282V370.5H380.382V372.28H368.102V367.3ZM383.582 365.2H399.702V366.94H392.682V372.62H390.482V366.94H383.582V365.2ZM385.482 355.52H387.662V357.7H395.562V355.52H397.722V363.32H385.482V355.52ZM387.662 359.42V361.56H395.562V359.42H387.662ZM401.483 356.04H411.063V357.82H407.403V358C407.403 360.16 408.783 362.22 411.563 363.1L410.503 364.8C408.523 364.18 407.123 362.92 406.363 361.32C405.583 363.2 404.103 364.68 401.983 365.4L400.883 363.66C403.723 362.7 405.203 360.38 405.203 358V357.82H401.483V356.04ZM412.783 354.82H414.983V359.08H417.463V360.88H414.983V365.44H412.783V354.82ZM409.243 365.82C412.903 365.82 415.183 367.06 415.183 369.2C415.183 371.34 412.903 372.6 409.243 372.6C405.583 372.6 403.283 371.34 403.283 369.2C403.283 367.06 405.583 365.82 409.243 365.82ZM409.243 367.54C406.823 367.54 405.443 368.1 405.443 369.2C405.443 370.3 406.823 370.9 409.243 370.9C411.643 370.9 413.023 370.3 413.023 369.2C413.023 368.1 411.643 367.54 409.243 367.54Z" fill="#15151A"/>
<rect x="253" y="420" width="208" height="72" rx="8" fill="#F6F6F7"/>
<path d="M326.2 446.8H328.4V464.6H326.2V446.8ZM323.14 448.66C323.14 454 321.12 458.48 314.92 461.48L313.78 459.74C318.4 457.52 320.5 454.5 320.88 450.44H314.66V448.66H323.14ZM336.04 447.58C338.36 447.58 340.16 448.9 340.58 450.86H343.74V446.82H345.94V456.36H343.74V452.64H340.6C340.2 454.64 338.38 455.98 336.04 455.98C333.36 455.98 331.38 454.24 331.38 451.78C331.38 449.32 333.36 447.58 336.04 447.58ZM336.04 449.4C334.54 449.4 333.48 450.32 333.48 451.78C333.48 453.22 334.54 454.14 336.04 454.14C337.52 454.14 338.58 453.22 338.58 451.78C338.58 450.32 337.52 449.4 336.04 449.4ZM334.28 457.2H336.48V459.08H343.76V457.2H345.94V464.4H334.28V457.2ZM336.48 460.78V462.64H343.76V460.78H336.48ZM348.621 455.74H364.741V457.48H357.961V460.72H355.761V457.48H348.621V455.74ZM350.641 447.6H362.681V454.08H350.641V447.6ZM360.521 449.32H352.801V452.32H360.521V449.32ZM350.561 459.12H352.761V462.52H362.961V464.28H350.561V459.12ZM377.901 446.82H380.101V454.16H382.541V456H380.101V464.62H377.901V446.82ZM365.921 459.68C367.261 459.68 368.801 459.68 370.421 459.64V457.96C368.501 457.64 367.241 456.44 367.241 454.74C367.241 452.74 369.001 451.42 371.521 451.42C374.041 451.42 375.821 452.74 375.821 454.74C375.821 456.44 374.541 457.64 372.621 457.96V459.54C374.081 459.48 375.541 459.34 376.921 459.16L377.101 460.74C373.321 461.48 369.241 461.48 366.221 461.48L365.921 459.68ZM366.241 448.84H370.421V446.88H372.621V448.84H376.781V450.58H366.241V448.84ZM371.521 453.08C370.201 453.08 369.321 453.7 369.321 454.74C369.321 455.78 370.201 456.4 371.521 456.4C372.861 456.4 373.741 455.78 373.741 454.74C373.741 453.7 372.861 453.08 371.521 453.08ZM396.082 446.82H398.282V455.88H396.082V446.82ZM386.562 456.72H398.282V461.32H388.762V462.74H398.802V464.46H386.602V459.74H396.122V458.42H386.562V456.72ZM387.942 447.26H390.162V448.6C390.162 450.86 391.662 452.98 394.442 453.84L393.382 455.54C391.342 454.9 389.882 453.56 389.082 451.88C388.282 453.7 386.782 455.16 384.642 455.88L383.582 454.12C386.442 453.22 387.942 450.94 387.942 448.6V447.26Z" fill="#15151A"/>
<rect x="253" y="512" width="208" height="72" rx="8" fill="#F6F6F7"/>
<path d="M319.76 550.96C320.62 552.64 321.84 553.48 323.12 553.48C325.02 553.5 326.08 552.58 326.08 551.16C326.08 547.8 318.66 549.24 318.66 544.1C318.66 541.66 320.66 540.22 323.4 540.24C325.3 540.26 327.12 541.32 327.94 543.62L326.04 544.3C325.52 542.76 324.48 542.1 323.38 542.08C321.8 542.08 320.78 542.86 320.78 544.1C320.78 547.42 328.18 546.16 328.18 551.18C328.18 553.66 326.24 555.36 323.1 555.32C320.94 555.3 319.22 554.06 318 551.94L319.76 550.96ZM342.852 540.4L337.712 555.16H335.232L329.772 540.4H332.032L336.452 552.3L340.592 540.4H342.852ZM344.778 549.5H360.878V551.3H353.918V556.64H351.698V551.3H344.778V549.5ZM346.258 540.9H351.698V538.84H353.918V540.9H359.378V542.66H353.938C354.158 544.42 356.438 546.26 359.938 546.7L359.158 548.42C356.218 548.06 353.958 546.76 352.818 545.04C351.678 546.78 349.398 548.04 346.438 548.42L345.678 546.7C349.198 546.26 351.458 544.46 351.678 542.66H346.258V540.9ZM362.978 540.14H372.678V541.9H368.958V542.4C368.958 544.64 370.478 546.8 373.258 547.72L372.138 549.42C370.118 548.76 368.678 547.42 367.878 545.7C367.098 547.56 365.598 549.02 363.498 549.74L362.378 548.02C365.218 547.06 366.718 544.76 366.718 542.4V541.9H362.978V540.14ZM374.738 538.82H376.958V551.74H374.738V538.82ZM365.258 550.54H367.458V554.5H377.438V556.26H365.258V550.54ZM380.719 539.84H389.239V541.6H382.899V543.26H388.739V544.98H382.899V546.76C386.199 546.76 388.239 546.68 390.559 546.3L390.759 548C388.239 548.42 386.019 548.48 382.219 548.48H380.719V539.84ZM392.239 538.82H394.439V549.4H392.239V538.82ZM382.739 550.2H394.439V556.4H382.739V550.2ZM392.279 551.92H384.879V554.66H392.279V551.92Z" fill="#15151A"/>
<g filter="url(#filter3_d_9277_53619)">
<rect x="481" y="512" width="208" height="72" rx="8" fill="white" shape-rendering="crispEdges"/>
<path d="M558.46 538.8H560.66V544.78H563.06V546.58H560.66V552.72H558.46V538.8ZM549.04 551.82H551.26V554.5H561.28V556.26H549.04V551.82ZM546.5 549.16C547.82 549.16 549.36 549.14 550.96 549.1V547.96C549 547.7 547.78 546.74 547.78 545.28C547.78 543.56 549.46 542.54 552.02 542.54C554.6 542.54 556.3 543.56 556.3 545.28C556.3 546.72 555.08 547.68 553.14 547.94V549C554.66 548.9 556.18 548.78 557.58 548.56L557.76 550.08C554.02 550.76 549.82 550.84 546.78 550.86L546.5 549.16ZM546.96 540.36H550.96V538.72H553.14V540.36H557.1V541.96H546.96V540.36ZM552.02 544.04C550.68 544.04 549.86 544.48 549.86 545.28C549.86 546.08 550.68 546.52 552.02 546.52C553.38 546.52 554.22 546.08 554.22 545.28C554.22 544.48 553.38 544.04 552.02 544.04ZM572.54 545.5H576.74V543.56H572.74C571.62 546.38 569.04 548.36 565.18 549.46L564.32 547.72C568.48 546.6 570.66 544.48 570.98 541.82H565.26V540.06H573.36C573.36 540.66 573.32 541.24 573.22 541.8H576.74V538.8H578.94V549.22H576.74V547.26H572.54V545.5ZM573.08 549.44C576.68 549.44 579.04 550.78 579.04 552.98C579.04 555.16 576.68 556.52 573.08 556.52C569.46 556.52 567.12 555.16 567.12 552.98C567.12 550.78 569.46 549.44 573.08 549.44ZM573.08 551.14C570.74 551.14 569.3 551.78 569.3 552.98C569.3 554.16 570.74 554.82 573.08 554.82C575.44 554.82 576.88 554.16 576.88 552.98C576.88 551.78 575.44 551.14 573.08 551.14ZM594.27 555.32C589.99 555.32 586.99 552.2 586.99 547.78C586.99 543.34 589.99 540.24 594.27 540.24C596.29 540.24 598.09 541.1 599.41 542.44L598.01 543.82C597.13 542.78 595.73 542.1 594.25 542.1C591.19 542.1 589.13 544.38 589.13 547.78C589.13 551.18 591.19 553.46 594.25 553.46C595.83 553.46 597.09 552.74 597.93 551.78L599.41 553.12C598.09 554.46 596.39 555.34 594.27 555.32ZM605.743 553.44C607.223 553.44 608.223 552.26 608.223 550.44C608.223 548.64 607.223 547.44 605.743 547.44C604.263 547.44 603.263 548.62 603.263 550.44C603.263 552.26 604.243 553.44 605.743 553.44ZM605.743 545.62C608.443 545.62 610.342 547.62 610.342 550.44C610.342 553.24 608.443 555.26 605.743 555.26C603.043 555.26 601.143 553.24 601.143 550.44C601.143 547.62 603.043 545.62 605.743 545.62ZM622.154 540.4V542.26H614.734V546.64H621.114V548.48H614.734V553.3H622.154V555.16H612.614V540.4H622.154Z" fill="#6D0CA6"/>
</g>
<g filter="url(#filter4_d_9277_53619)">
<rect x="480.5" y="328" width="208" height="72" rx="8" fill="white" shape-rendering="crispEdges"/>
<path d="M510.76 366.96C511.62 368.64 512.84 369.48 514.12 369.48C516.02 369.5 517.08 368.58 517.08 367.16C517.08 363.8 509.66 365.24 509.66 360.1C509.66 357.66 511.66 356.22 514.4 356.24C516.3 356.26 518.12 357.32 518.94 359.62L517.04 360.3C516.52 358.76 515.48 358.1 514.38 358.08C512.8 358.08 511.78 358.86 511.78 360.1C511.78 363.42 519.18 362.16 519.18 367.18C519.18 369.66 517.24 371.36 514.1 371.32C511.94 371.3 510.22 370.06 509 367.94L510.76 366.96ZM533.852 356.4L528.712 371.16H526.232L520.772 356.4H523.032L527.452 368.3L531.592 356.4H533.852ZM548.278 354.82H550.498V366.68H548.278V354.82ZM536.698 356.26H545.178V364.34H536.698V356.26ZM543.058 358.02H538.838V362.58H543.058V358.02ZM543.438 365.72H545.718V366.14C545.718 368.32 547.838 370.3 551.398 370.84L550.558 372.54C547.758 372.06 545.618 370.74 544.558 368.9C543.498 370.74 541.338 372.08 538.538 372.54L537.698 370.84C541.258 370.3 543.438 368.34 543.438 366.14V365.72ZM558.138 355.58C560.458 355.58 562.258 356.9 562.678 358.86H565.838V354.82H568.038V364.36H565.838V360.64H562.698C562.298 362.64 560.478 363.98 558.138 363.98C555.458 363.98 553.478 362.24 553.478 359.78C553.478 357.32 555.458 355.58 558.138 355.58ZM558.138 357.4C556.638 357.4 555.578 358.32 555.578 359.78C555.578 361.22 556.638 362.14 558.138 362.14C559.618 362.14 560.678 361.22 560.678 359.78C560.678 358.32 559.618 357.4 558.138 357.4ZM556.378 365.2H558.578V367.08H565.858V365.2H568.038V372.4H556.378V365.2ZM558.578 368.78V370.64H565.858V368.78H558.578ZM572.139 363.78C572.139 361.18 573.159 357.76 574.599 355.48H576.839C575.199 357.74 574.059 361.16 574.059 363.78C574.059 366.4 575.199 369.82 576.839 372.08H574.599C573.159 369.8 572.139 366.38 572.139 363.78ZM591.725 365.76C591.725 364.4 590.985 363.5 589.905 363.5C588.685 363.5 587.865 364.44 587.865 365.66V371.18H585.725V365.76C585.725 364.4 585.005 363.5 583.945 363.5C582.725 363.5 581.865 364.54 581.865 365.88V371.18H579.745V361.64H581.865V362.94C582.425 362.18 583.245 361.66 584.145 361.66C585.285 361.66 586.405 362.38 586.965 363.38C587.625 362.38 588.905 361.66 590.045 361.66C592.305 361.66 593.865 363.34 593.865 365.68V371.18H591.725V365.76ZM600.797 371.22C598.097 371.22 596.197 369.24 596.197 366.44C596.197 363.62 598.097 361.64 600.797 361.64C603.757 361.64 604.697 364.06 604.757 364.22C605.337 365.58 605.157 367.1 605.157 367.26H598.277C598.517 368.54 599.597 369.42 600.797 369.42C602.377 369.42 603.017 368.5 603.177 368.22L604.877 368.98C604.417 370.06 603.077 371.22 600.797 371.22ZM603.157 365.58C602.957 364.4 602.277 363.44 600.797 363.44C599.517 363.44 598.517 364.34 598.277 365.58H603.157ZM611.715 371.22C609.015 371.22 607.115 369.24 607.115 366.44C607.115 363.62 609.015 361.64 611.715 361.64C614.675 361.64 615.615 364.06 615.675 364.22C616.255 365.58 616.075 367.1 616.075 367.26H609.195C609.435 368.54 610.515 369.42 611.715 369.42C613.295 369.42 613.935 368.5 614.095 368.22L615.795 368.98C615.335 370.06 613.995 371.22 611.715 371.22ZM614.075 365.58C613.875 364.4 613.195 363.44 611.715 363.44C610.435 363.44 609.435 364.34 609.195 365.58H614.075ZM619.125 371.18V363.46H617.325V361.62H619.125V358.28H621.245V361.62H623.505V363.46H621.245V371.18H619.125ZM632.877 367.08C632.877 368.54 633.737 369.44 634.997 369.44C636.337 369.44 637.257 368.56 637.237 367.1V361.64H639.377V371.18H637.237V370.08C636.637 370.82 635.657 371.26 634.717 371.26C632.417 371.26 630.757 369.6 630.757 367.16V361.64H632.877V367.08ZM646.985 369.44C648.525 369.44 649.525 368.24 649.525 366.42C649.525 364.6 648.525 363.4 646.985 363.4C645.545 363.4 644.365 364.74 644.365 366.42C644.365 368.1 645.545 369.44 646.985 369.44ZM647.105 361.62C649.765 361.62 651.645 363.6 651.645 366.42C651.645 369.26 649.765 371.24 647.105 371.24C646.345 371.24 645.105 370.82 644.345 369.82V375.4H642.225V361.62H644.345V363.02C645.105 362.02 646.365 361.62 647.105 361.62ZM658.695 363.78C658.695 366.38 657.695 369.78 656.255 372.08H654.015C655.635 369.84 656.775 366.4 656.775 363.78C656.775 361.16 655.635 357.72 654.015 355.48H656.255C657.695 357.78 658.695 361.18 658.695 363.78Z" fill="#6D0CA6"/>
</g>
</g>
<defs>
<filter id="filter0_d_9277_53619" x="715.158" y="323.993" width="218.685" height="82.6849" filterUnits="userSpaceOnUse" color-interpolation-filters="sRGB">
<feFlood flood-opacity="0" result="BackgroundImageFix"/>
<feColorMatrix in="SourceAlpha" type="matrix" values="0 0 0 0 0 0 0 0 0 0 0 0 0 0 0 0 0 0 127 0" result="hardAlpha"/>
<feOffset dy="1.33562"/>
<feGaussianBlur stdDeviation="2.67123"/>
<feComposite in2="hardAlpha" operator="out"/>
<feColorMatrix type="matrix" values="0 0 0 0 0 0 0 0 0 0 0 0 0 0 0 0 0 0 0.1 0"/>
<feBlend mode="normal" in2="BackgroundImageFix" result="effect1_dropShadow_9277_53619"/>
<feBlend mode="normal" in="SourceGraphic" in2="effect1_dropShadow_9277_53619" result="shape"/>
</filter>
<filter id="filter1_d_9277_53619" x="409" y="-8" width="280" height="144" filterUnits="userSpaceOnUse" color-interpolation-filters="sRGB">
<feFlood flood-opacity="0" result="BackgroundImageFix"/>
<feColorMatrix in="SourceAlpha" type="matrix" values="0 0 0 0 0 0 0 0 0 0 0 0 0 0 0 0 0 0 127 0" result="hardAlpha"/>
<feOffset/>
<feGaussianBlur stdDeviation="18"/>
<feComposite in2="hardAlpha" operator="out"/>
<feColorMatrix type="matrix" values="0 0 0 0 0.592485 0 0 0 0 0.207569 0 0 0 0 0.816667 0 0 0 0.5 0"/>
<feBlend mode="normal" in2="BackgroundImageFix" result="effect1_dropShadow_9277_53619"/>
<feBlend mode="normal" in="SourceGraphic" in2="effect1_dropShadow_9277_53619" result="shape"/>
</filter>
<filter id="filter2_d_9277_53619" x="164.658" y="173.993" width="218.685" height="82.6849" filterUnits="userSpaceOnUse" color-interpolation-filters="sRGB">
<feFlood flood-opacity="0" result="BackgroundImageFix"/>
<feColorMatrix in="SourceAlpha" type="matrix" values="0 0 0 0 0 0 0 0 0 0 0 0 0 0 0 0 0 0 127 0" result="hardAlpha"/>
<feOffset dy="1.33562"/>
<feGaussianBlur stdDeviation="2.67123"/>
<feComposite in2="hardAlpha" operator="out"/>
<feColorMatrix type="matrix" values="0 0 0 0 0 0 0 0 0 0 0 0 0 0 0 0 0 0 0.1 0"/>
<feBlend mode="normal" in2="BackgroundImageFix" result="effect1_dropShadow_9277_53619"/>
<feBlend mode="normal" in="SourceGraphic" in2="effect1_dropShadow_9277_53619" result="shape"/>
</filter>
<filter id="filter3_d_9277_53619" x="475.658" y="507.993" width="218.685" height="82.6849" filterUnits="userSpaceOnUse" color-interpolation-filters="sRGB">
<feFlood flood-opacity="0" result="BackgroundImageFix"/>
<feColorMatrix in="SourceAlpha" type="matrix" values="0 0 0 0 0 0 0 0 0 0 0 0 0 0 0 0 0 0 127 0" result="hardAlpha"/>
<feOffset dy="1.33562"/>
<feGaussianBlur stdDeviation="2.67123"/>
<feComposite in2="hardAlpha" operator="out"/>
<feColorMatrix type="matrix" values="0 0 0 0 0 0 0 0 0 0 0 0 0 0 0 0 0 0 0.1 0"/>
<feBlend mode="normal" in2="BackgroundImageFix" result="effect1_dropShadow_9277_53619"/>
<feBlend mode="normal" in="SourceGraphic" in2="effect1_dropShadow_9277_53619" result="shape"/>
</filter>
<filter id="filter4_d_9277_53619" x="475.158" y="323.993" width="218.685" height="82.6849" filterUnits="userSpaceOnUse" color-interpolation-filters="sRGB">
<feFlood flood-opacity="0" result="BackgroundImageFix"/>
<feColorMatrix in="SourceAlpha" type="matrix" values="0 0 0 0 0 0 0 0 0 0 0 0 0 0 0 0 0 0 127 0" result="hardAlpha"/>
<feOffset dy="1.33562"/>
<feGaussianBlur stdDeviation="2.67123"/>
<feComposite in2="hardAlpha" operator="out"/>
<feColorMatrix type="matrix" values="0 0 0 0 0 0 0 0 0 0 0 0 0 0 0 0 0 0 0.1 0"/>
<feBlend mode="normal" in2="BackgroundImageFix" result="effect1_dropShadow_9277_53619"/>
<feBlend mode="normal" in="SourceGraphic" in2="effect1_dropShadow_9277_53619" result="shape"/>
</filter>
<clipPath id="clip0_9277_53619">
<rect width="1098" height="600" rx="16" fill="white"/>
</clipPath>
</defs>
</svg>
